<svg width="659" height="653" viewBox="0 0 659 653" fill="none" xmlns="http://www.w3.org/2000/svg">
<rect width="658.238" height="652.179" transform="translate(0.523438 0.523438)" fill="#FCFCF9"/>
<path fill-rule="evenodd" clip-rule="evenodd" d="M177.997 341.387C168.639 252.664 236.836 180.958 316.631 173.532C405.26 165.29 476.159 231.882 483.957 311.76C492.773 402.114 424.234 471.629 344.638 479.167C255.647 487.596 186.237 419.545 177.997 341.387ZM316.14 164.205C230.397 172.692 158.766 246.679 168.687 343.364C177.265 427.001 253.165 498.643 348.036 488.416C432.341 479.326 503.348 404.182 493.254 309.312C484.374 225.864 410.058 154.904 316.14 164.205Z" fill="#2B2A29"/>
<path fill-rule="evenodd" clip-rule="evenodd" d="M547.347 458.85C541.566 448.376 544.695 375.874 544.502 352.722C544.383 338.556 541.898 325.811 558.685 331.663C562.883 342.33 560.55 414.416 560.716 436.326C560.818 449.892 564.527 462.444 547.347 458.85ZM521.957 196.956C521.957 210.62 518.574 265.006 526.945 274.171C535.754 283.807 546.16 277.714 547.832 284.34L547.835 321.26C534.391 325.848 534.93 333.101 534.93 348.932C534.93 370.083 530.919 455.154 539.874 464.496C544.811 469.639 555.054 471.423 562.31 466.747C573.774 459.362 570.237 435.051 570.237 419.224L569.895 335.708C568.382 324.726 564.643 324.631 557.441 319.945L557.42 281.264C590.361 276.951 583.074 266.549 583.166 210.267C583.2 187.472 586.234 185.902 577.564 182.945C572.058 187.234 573.631 186.848 573.631 195.053L572.831 243.815C572.095 253.176 574.964 265.254 568.067 269.923C566.914 264.416 566.216 210.149 566.368 200.699C566.562 188.75 569.427 183.939 558.017 183.291C552.589 203.534 561.198 268.363 552.867 271.086C546.16 271.221 548.527 211.563 548.544 200.685C548.703 189.13 551.368 184.169 541.471 183.481C536.015 192.124 539.148 250.935 538.857 270.211C530.627 266.562 533.157 252.959 531.624 229.248L531.797 191.1C530.919 182.454 531.74 184.976 526.27 183.037C521.537 186.295 521.957 187.055 521.957 196.956Z" fill="#2B2A29"/>
<path fill-rule="evenodd" clip-rule="evenodd" d="M228.65 341.346C219.468 280.199 265.062 231.313 315.732 224.145C377.487 215.4 425.661 259.438 433.229 311.058C442.228 372.412 397.274 421.264 345.652 428.429C283.769 437.021 236.32 392.406 228.65 341.346ZM311.887 215.383C255.185 226.244 208.035 276.263 219.722 345.812C228.87 400.246 282.558 449.343 350.578 437.323C406.66 427.408 454.075 373.863 441.94 305.816C432.276 251.626 378.087 202.702 311.887 215.383Z" fill="#2B2A29"/>
<path fill-rule="evenodd" clip-rule="evenodd" d="M116.116 457.831C109.019 460.95 109.504 461.025 102.434 457.668C99.6911 445.652 101.292 378.205 101.224 356.525C101.193 346.336 98.1552 331.027 108.554 330.139C120.354 329.128 117.39 344.814 117.336 354.619C117.217 378.062 118.913 443.573 116.116 457.831ZM85.4029 250.146C79.5201 222.943 107.724 157.367 129.298 217.772C150.175 276.234 93.0353 285.426 85.4029 250.146ZM103.892 280.543L104.438 320.435C86.8914 331.678 91.6926 340.331 91.6959 362.231C91.6993 380.595 91.6959 398.959 91.6959 417.323C91.6959 432.238 87.7763 458.007 97.7483 465.87C101.542 468.861 126.888 479.843 126.888 443.919V347.034C126.888 329.061 126.935 329.081 114.752 320.435L113.993 280.001C165.158 270.711 139.006 183.991 110.219 183.096C90.299 182.475 79.4726 210.869 75.8751 230.989C70.7722 259.505 83.5346 272.05 103.892 280.543Z" fill="#2B2A29"/>
</svg>
