<svg width="659" height="653" viewBox="0 0 659 653" fill="none" xmlns="http://www.w3.org/2000/svg">
<rect width="658.238" height="652.179" transform="translate(0.382812 0.523438)" fill="#FCFCF9"/>
<path fill-rule="evenodd" clip-rule="evenodd" d="M372.402 291.477C368.164 282.542 361.559 276.962 367.537 265.111L369.388 262.846C372.135 268.278 376.525 285.431 372.402 291.477ZM283.187 292.63C283.313 286.628 284.459 281.742 285.408 275.548C287.097 264.602 285.71 266.556 289.925 261.537C295.499 279.949 292.678 281 283.187 292.63ZM335.051 271.584C332.494 277.941 345.901 329.286 348.203 340.903C357.406 387.378 380.262 538.47 372.148 571.861L285.551 571.661C278.912 527.616 299.985 393.288 310.146 340.011C312.167 329.415 326.225 277.419 322.404 271.052C313.72 271.394 315.097 274.591 313.168 283.482C290.291 388.663 277.993 457.019 275.84 571.776L199.251 571.529C198.963 490.339 234.141 389.247 268.77 331.165L299.957 284.685C309.665 259.157 272.897 231.866 291.64 213.078C311.455 193.219 314.92 218.022 326.995 221.412C334.722 223.582 342.171 209.416 348.824 206.822C360.576 202.245 366.957 213.773 371.941 220.364C371.67 229.916 369.537 238.552 366.428 246.3C353.615 278.24 348.061 271.543 373.467 306.623C419.807 370.605 460.031 489.112 458.881 571.844L382.395 571.22C379.909 489.773 372.562 415.161 356.585 336.193C354.127 324.017 351.841 312.655 348.949 300.449C343.375 276.904 345.525 270.139 335.051 271.584ZM248.182 335.891C250.796 328.188 256.194 324.614 258.249 315.334L269.72 236.158C271.896 221.073 271.591 194.728 282.458 187.617C288.321 183.783 299.096 182.372 306.19 180.673C320.786 177.174 314.046 177.445 320.593 167.012C331.745 170.627 326.778 170.763 338.123 166.626C341.964 178.815 341.707 178.076 354.361 181.101C362.325 182.999 372.457 184.352 377.556 188.669C387.922 197.45 394.743 293.471 400.074 316.086C402.054 324.495 407.591 327.859 409.625 335.654C399.029 333.006 395.225 324.634 390.22 315.211C386.246 307.718 378.79 261.337 377.407 250.118C376.071 239.325 381.696 230.398 380.916 216.75C375.827 209.945 366.848 197.851 356.588 196.65C340.649 194.789 336.906 206.893 327.724 211.162C318.443 200.017 304.921 188.848 287.975 203.988C266.302 223.352 282.482 225.081 280.736 249.175C279.305 268.922 273.453 305.175 263.488 322.301C257.612 332.399 259.782 331.853 248.182 335.891ZM309.417 138.585C333.41 133.621 339.72 120.825 347.43 117.919C359.26 135.205 342.259 153.419 329.629 160.001C319.166 155.884 312.313 149.91 309.417 138.585ZM306.64 129.983C306.949 114.25 321.661 110.049 337.668 111.538C331.823 120.92 319.322 127.318 306.64 129.983ZM280.634 177.791C283.655 157.146 298.52 78.7467 329.636 79.3536C357.28 79.8927 372.775 147.221 377.546 177.283C336.099 169.393 344.08 164.91 353.723 150.541C381.032 109.849 323.974 83.8225 301.446 116.23C289.677 133.163 304.284 147.794 312.283 160.77L309.56 170.189L280.634 177.791ZM413.853 345.795C417.885 343.351 421.326 341.886 420.028 334.704C419.244 330.371 413.687 324.105 411.239 319.477C406.123 309.803 396.697 218.907 391.858 196.169C386.904 172.902 379.808 140.664 372.911 119.252C366.35 98.9042 351.394 69.4834 327.815 70.2328C287.246 71.5212 271.506 169.464 265.956 198.366C262.27 217.56 252.634 309.661 245.887 320.962C233.256 342.113 234.721 341.262 249.471 346.857C219.134 411.91 197.085 472.816 191.168 546.546C190.71 552.256 190.426 557.997 190.144 563.73C189.575 575.34 189.059 576.913 192.891 579.697C197.546 583.07 370.161 580.884 400.104 580.907C409.73 580.914 461.485 583.142 465.92 578.846C476.499 568.792 454.67 469.958 450.147 454.09C439.765 417.684 425.883 379.302 409.249 348.664L413.853 345.795Z" fill="#2B2A29"/>
</svg>
