<svg width="660" height="653" viewBox="0 0 660 653" fill="none" xmlns="http://www.w3.org/2000/svg">
<rect width="658.238" height="652.179" transform="translate(0.859375 0.523438)" fill="#FCFCF9"/>
<path fill-rule="evenodd" clip-rule="evenodd" d="M425.947 370.961L574.912 370.429L575.271 505.096L425.882 505.259L425.947 370.961ZM355.682 505.157L303.968 504.964C304.215 484.369 304.157 464.221 304.049 444.169C303.995 434.468 303.703 426.683 309.043 419.37C321.097 402.861 355.621 400.718 355.733 442.297C355.79 463.245 355.628 484.206 355.682 505.157ZM84.5748 370.354L233.221 370.442L233.842 505.394L84.6494 505.299L84.5748 370.354ZM294.691 505.32L243.292 505.15C243.685 480.029 239.942 324.692 246.235 314.751L330.11 203.303L371.523 258.266C384.333 277.145 400.585 295.743 412.794 313.981C420.288 325.177 416.117 479.791 416.449 505.394L365.067 505.089C366.115 461.261 375.86 399.178 330.113 399.026C310.05 398.958 295.983 414.016 294.667 432.949C293.182 454.382 294.202 483.379 294.691 505.32ZM425.977 343.748C431.918 346.128 439.757 355.398 443.778 360.769L425.801 360.074L425.977 343.748ZM233.649 343.415L233.571 360.908L215.651 360.047L233.649 343.415ZM185.569 360.762C189.692 352.903 199.813 344.606 206.571 337.801C222.209 322.047 218.903 322.115 233.476 322.248C233.269 333.491 220.578 341.127 214.339 347.481C204.391 357.605 205.706 361.264 185.569 360.762ZM442.751 327.747L474.27 360.487C453.801 362.213 454.347 356.897 444.405 347.044C438.248 340.944 426.493 332.908 426.014 323C436.319 320.878 437.509 322.37 442.751 327.747ZM123.771 360.976C129.599 352.218 138.93 344.558 146.648 336.848C158.715 324.791 157.087 322.343 176.913 322.037C171.518 330.368 159.668 340.137 153.849 345.955C143.115 356.693 145.135 360.898 123.771 360.976ZM566.958 359.976C548.428 363.993 543.765 352.987 535.753 345.077C528.128 337.55 521.079 329.619 513.538 323.021C532.481 319.03 536.496 329.761 544.739 338.007C552.412 345.684 559.542 352.574 566.958 359.976ZM535.73 360.762C514.585 361.176 515.406 355.703 505.078 345.338C497.547 337.78 489.186 330.429 482.781 322.777C502.41 319.935 504.783 327.649 513.765 336.644C520.672 343.565 531.939 352.269 535.73 360.762ZM495.584 360.877C485.293 360.877 477.078 348.563 471.419 342.846C464.57 335.936 457.07 330.378 451.882 322.509C472.704 321.044 472.806 326.876 482.988 336.98C489.284 343.229 501.369 353.655 504.997 360.789L495.584 360.877ZM154.792 360.827C158.359 352.506 169.982 343.215 176.723 336.485C185.372 327.849 188.638 319.444 207.778 322.892C201.42 330.216 192.903 337.936 185.444 345.206C174.465 355.907 176.614 361.084 154.792 360.827ZM92.7904 360.355C97.4559 353.669 108.506 344.026 114.999 337.526C126.809 325.71 123.964 321.861 146.149 322.234C141.406 331.45 131.427 338.93 123.93 346.464C113.86 356.581 113.755 362.766 92.7904 360.355ZM310.461 150.3C307.782 162.31 313.726 160.228 325.146 160.218C324.688 207.938 325.939 188.523 286.468 244.625L235.012 312.482C203.58 313.11 171.362 312.696 139.86 312.53C127.284 312.462 127.09 311.309 120.411 318.172C107.218 331.728 93.5465 345.341 80.584 358.284C77.9562 360.908 77.8477 360.467 75.0708 361.888C74.9894 383.025 72.7787 503.736 76.5389 513.094C80.1737 516.882 580.198 516.787 583.64 512.694C586.783 503.411 584.762 383.158 584.762 362.271C575.526 354.069 539.639 317.467 535.591 314.893C527.829 309.957 449.573 312.649 434.576 312.686C419.654 312.723 423.495 312.466 407.481 290.735C392.444 270.323 378.898 252.081 363.803 231.744C329.726 185.841 335.582 201.662 334.511 161.249C344.951 158.93 349.423 163.744 350.26 152.291L334.833 149.412L333.68 136.117L326.224 136.724L324.41 150.65L310.461 150.3Z" fill="#2B2A29"/>
<path fill-rule="evenodd" clip-rule="evenodd" d="M140.017 451.781C140.095 433.882 138.606 414.23 158.831 414.223C179.687 414.206 178.362 432.913 177.972 452.002L140.017 451.781ZM131.357 459.916C140.43 462.615 177.955 462.899 186.54 459.933C193.03 433.15 186.031 404.522 158.872 404.617C130.692 404.712 127.261 433.475 131.357 459.916Z" fill="#202020"/>
<path fill-rule="evenodd" clip-rule="evenodd" d="M481.765 451.836C481.013 432.533 480.233 413.766 501.282 414.342C521.189 414.888 519.246 434.608 519.622 452.101L481.765 451.836ZM528.441 459.58C531.781 433.645 529.224 405.242 501.265 404.703C473.126 404.163 467.813 434.032 473.021 460.35C482.613 462.601 519.958 463.103 528.441 459.58Z" fill="#212121"/>
<path fill-rule="evenodd" clip-rule="evenodd" d="M321.681 324.892C346.735 314.137 359.277 350.81 337.96 360.182C313.625 370.883 298.937 334.654 321.681 324.892ZM320.057 315.287C283.458 329.165 304.389 382.411 339.875 369.74C373.826 357.615 357.497 301.09 320.057 315.287Z" fill="#1F1F1F"/>
<path fill-rule="evenodd" clip-rule="evenodd" d="M140.016 451.785L177.971 452.005C178.361 432.916 179.687 414.21 158.831 414.227C138.605 414.233 140.094 433.886 140.016 451.785Z" fill="#FDFDFD"/>
<path fill-rule="evenodd" clip-rule="evenodd" d="M481.688 451.793L519.643 452.013C520.033 432.924 521.359 414.217 500.503 414.234C480.277 414.241 481.766 433.893 481.688 451.793Z" fill="#FDFDFD"/>
<path fill-rule="evenodd" clip-rule="evenodd" d="M324.008 142.07H335.214V204.509H324.008V142.07Z" fill="#2B2A29"/>
<path fill-rule="evenodd" clip-rule="evenodd" d="M306.398 167.855V156.648H353.203V167.855H306.398Z" fill="#2B2A29"/>
</svg>
