<svg width="699" height="362" viewBox="0 0 699 362" fill="none" xmlns="http://www.w3.org/2000/svg">
<path d="M3.20662 361.96L0.96875 359.98V346.902L3.20662 344.837C15.4232 344.667 23.3369 344.064 26.8666 342.945C30.3929 341.914 33.5768 339.676 36.33 336.408C39.0832 333.139 44.6744 322.384 53.107 304.318L79.605 246.847L148.171 91.5613C161.076 61.1063 173.893 30.7362 186.713 0.28125H203.059L310.685 253.387L325.052 287.111C329.266 296.747 334.084 307.156 339.591 318.427C345.012 329.609 348.797 336.319 350.861 338.3C353.011 340.28 355.595 341.914 358.69 342.945C361.786 344.064 368.757 344.667 379.509 344.837L381.489 346.902V359.98L379.509 361.96C361.701 360.495 345.613 359.722 331.331 359.722C303.457 360.583 275.585 361.356 247.711 361.96L245.646 359.98V346.902L247.711 344.837C266.549 344.494 278.25 343.718 282.984 342.43C287.714 341.226 290.036 338.3 290.036 333.739C290.036 330.04 288.833 325.222 286.51 319.115L255.54 242.29H109.541L82.0971 306.811C77.1942 318.427 74.7868 326.856 74.7868 332.278C74.7868 336.492 77.0213 339.592 81.5818 341.568C86.1422 343.633 97.5856 344.667 115.909 344.837L118.147 346.902V359.98L116.082 361.96C94.4018 360.668 75.4751 359.98 59.1287 359.98C40.6293 359.98 22.0485 360.668 3.20662 361.96ZM118.147 220.606H245.646L182.41 68.5895L118.147 220.606ZM544.834 190.067V241.255L545.092 290.38C545.262 308.706 545.78 320.834 546.638 326.856C547.5 332.793 548.703 336.665 550.253 338.384C551.887 340.192 554.986 341.741 559.458 342.945C564.019 344.237 575.201 345.183 593.012 345.871L594.989 347.332V359.98L593.012 361.96C550.338 360.668 526.25 359.98 520.659 359.98C515.326 359.98 491.235 360.668 448.563 361.96L446.583 359.98V347.332L448.563 345.871C464.394 345.183 474.804 344.322 479.964 343.376C485.128 342.345 488.566 340.968 490.289 339.33C492.096 337.611 493.473 334.255 494.592 329.267C495.707 324.191 496.311 312.748 496.484 294.94L496.741 241.255V124.596L496.226 75.3877C496.053 56.2881 495.622 43.8985 494.849 38.3921C494.073 32.8009 492.869 29.1019 491.32 27.2946C489.685 25.4026 486.674 23.9378 482.114 22.7341C477.557 21.5304 466.371 20.6692 448.563 19.9809L446.583 18.1736V5.61459L448.563 3.80734C519.798 4.84149 561.438 5.35698 573.309 5.35698C613.316 5.35698 654.353 4.84149 696.336 3.80734L698.401 5.61459C695.648 13.959 693.925 23.5106 693.064 34.1776C692.206 44.8446 691.345 59.9873 690.314 79.4294L688.249 81.4942H676.46L674.656 79.4294C674.31 78.3105 673.537 71.7733 672.418 60.0721C671.557 50.7817 670.18 42.3489 668.373 34.6081C650.911 28.671 626.821 25.745 596.023 25.745C582.257 25.745 566.084 26.7791 547.672 28.7559C545.78 41.9184 544.834 73.8382 544.834 124.596V168.214C566.168 168.471 580.708 168.645 588.452 168.645C602.733 168.645 615.035 168.129 625.271 167.01C635.511 165.979 641.617 164.86 643.682 163.915C645.663 162.88 647.212 160.988 648.328 158.235C649.446 155.482 650.481 149.372 651.511 139.909L652.976 126.316L654.78 124.339H667.6L669.665 126.576L667.858 181.807C667.858 188.175 668.115 197.38 668.634 209.509C669.323 223.275 669.665 233.942 669.665 241.513L667.342 243.493H654.78L652.976 241.513L651.942 220.091C651.511 211.662 650.654 205.552 649.447 201.68C648.328 197.811 646.351 195.315 643.682 194.112C641.017 192.993 634.996 191.874 625.79 190.84C616.496 189.809 602.303 189.378 583.203 189.378C566.168 189.378 553.436 189.636 544.834 190.067Z" fill="#2B2A29"/>
<path fill-rule="evenodd" clip-rule="evenodd" d="M397.976 170.656C405.694 170.656 411.949 176.912 411.949 184.632C411.949 192.35 405.694 198.605 397.976 198.605C390.259 198.605 384 192.35 384 184.632C384 176.912 390.259 170.656 397.976 170.656Z" fill="#2B2A29" stroke="#2B2A29" stroke-width="6.78132" stroke-miterlimit="22.9256"/>
</svg>
