<svg width="1321" height="425" viewBox="0 0 1321 425" fill="none" xmlns="http://www.w3.org/2000/svg">
<path d="M453.19 32.6086C453.19 36.0196 452.053 37.7253 449.779 37.7253C448.011 37.7253 446.05 37.5997 443.906 37.3446C441.757 37.0939 439.165 36.9687 436.135 36.9687H431.587C429.564 43.2847 426.09 49.6009 421.166 55.917C416.238 62.233 410.49 67.9178 403.919 72.9716C397.352 78.0253 390.15 82.193 382.316 85.4786C374.483 88.7642 366.653 90.4069 358.82 90.4069C350.48 90.4069 346.313 87.1212 346.313 80.4873C346.313 76.4452 348.207 71.5215 351.998 65.8365C355.79 60.0845 361.094 54.592 367.916 49.2204C374.738 43.916 383.01 39.1175 392.742 34.9456C402.469 30.7154 413.14 28.1237 424.765 27.112V25.5986C424.765 20.1644 422.303 15.6165 417.375 12.0175C412.446 8.41858 403.919 6.64595 391.793 6.64595C376.381 6.64595 362.356 10.5001 349.724 18.2083C337.092 25.9121 325.404 36.2747 314.666 49.2829C303.927 62.2956 293.631 77.2688 283.779 94.1982C273.922 111.123 264.007 128.809 254.025 147.256C244.047 165.699 233.689 184.334 222.95 203.156C212.212 221.979 200.399 239.732 187.511 256.407C190.546 256.407 193.639 256.407 196.8 256.407C199.955 256.407 203.304 256.532 206.84 256.787L268.998 258.681C275.565 258.931 280.874 259.061 284.916 259.061C288.958 259.061 292.114 259.124 294.388 259.249C296.662 259.375 298.179 259.567 298.936 259.818C299.697 260.068 300.073 260.575 300.073 261.335C300.073 265.628 298.497 268.596 295.337 270.239C292.181 271.882 287.696 272.956 281.881 273.462C276.326 273.211 269.374 272.956 261.039 272.705C252.7 272.45 243.729 272.262 234.128 272.137C224.53 272.007 214.611 271.819 204.378 271.568C194.145 271.313 184.481 271.188 175.385 271.188C166.289 281.546 156.562 291.147 146.204 299.993C135.841 308.833 124.664 316.416 112.663 322.732C100.662 329.048 87.7116 333.973 73.8126 337.513C59.9181 341.05 44.8822 342.818 28.7137 342.818C19.8685 342.818 12.9212 340.732 7.86744 336.564C2.81368 332.397 0.289062 327.151 0.289062 320.835C0.289062 314.519 3.19418 307.759 9.00445 300.561C14.8147 293.359 24.4164 286.599 37.8095 280.283C51.1982 273.967 68.7589 268.596 90.4914 264.178C112.219 259.755 138.876 257.163 170.456 256.407C182.838 239.983 194.333 222.235 204.946 203.156C215.56 184.083 226.043 165.067 236.401 146.119C246.764 127.171 257.373 108.979 268.237 91.5439C279.106 74.1087 290.852 58.6968 303.484 45.3036C316.12 31.9149 330.015 21.1763 345.176 13.092C360.337 5.00779 377.392 0.960938 396.341 0.960938C409.984 0.960938 419.649 3.23519 425.334 7.85028C431.019 12.4609 433.861 18.2711 433.861 25.2183V26.3553C440.432 26.3553 446.117 26.8613 450.916 27.9356C451.166 27.9356 451.547 28.186 452.053 28.6918C452.809 29.5155 453.19 30.7778 453.19 32.6086ZM422.111 37.7253C412.003 38.9877 402.974 41.2615 395.016 44.4844C387.057 47.77 380.297 51.3691 374.738 55.4112C369.178 59.3906 364.948 63.4955 362.043 67.6048C359.133 71.7722 357.683 75.183 357.683 77.9628C357.683 81.9423 360.208 83.9613 365.261 83.9613C369.809 83.9613 374.926 82.5732 380.611 79.8561C386.296 77.0763 391.793 73.415 397.097 68.9298C402.406 64.4445 407.33 59.3907 411.878 53.8982C416.426 48.4013 419.837 42.9671 422.111 37.7253ZM158.71 271.188C131.423 271.438 108.177 273.211 88.9739 276.492C69.7705 279.778 54.1078 283.757 41.977 288.43C29.8506 293.108 21.0681 298.225 15.6383 303.78C10.204 309.339 7.49139 314.518 7.49139 319.321C7.49139 324.12 9.8281 328.037 14.5014 331.067C19.1747 334.102 25.9338 335.615 34.779 335.615C48.1677 335.615 60.6746 334.04 72.2996 330.879C83.9201 327.719 94.7842 323.301 104.892 317.616C114.999 311.931 124.538 305.172 133.504 297.338C142.475 289.505 150.877 280.789 158.71 271.188ZM403.543 242.006C403.543 242.763 403.355 243.519 402.974 244.28C402.594 245.037 401.649 245.923 400.132 246.93C396.34 249.46 392.173 252.11 387.625 254.889C383.834 257.163 379.604 259.692 374.93 262.472C370.257 265.252 365.391 268.027 360.337 270.807C357.307 272.324 353.704 273.968 349.536 275.736C345.369 277.504 341.071 279.084 336.649 280.472C332.231 281.864 327.808 283 323.385 283.882C318.963 284.769 314.858 285.212 311.067 285.212C306.013 285.212 301.908 284.263 298.752 282.369C295.592 280.471 294.012 277.253 294.012 272.705C294.012 269.164 296.348 264.617 301.026 259.061C305.699 253.502 314.352 246.805 326.984 238.971C318.9 238.971 313.09 238.027 309.554 236.129C306.013 234.236 304.245 231.899 304.245 229.119C304.245 225.328 306.774 220.91 311.827 215.856C316.881 210.802 323.197 205.999 330.776 201.451C338.354 196.903 346.568 193.049 355.409 189.893C364.254 186.733 372.339 185.157 379.666 185.157C382.195 185.157 384.657 185.533 387.057 186.294C389.456 187.051 390.656 188.944 390.656 191.979C390.656 194.253 389.518 196.46 387.245 198.608C384.971 200.757 382.383 202.651 379.478 204.293C376.573 205.936 373.919 207.329 371.519 208.465C369.12 209.602 367.916 210.171 367.916 210.171C367.41 210.171 366.842 209.979 366.21 209.603C365.579 209.222 365.011 208.398 364.505 207.136C364.505 206.125 365.011 205.368 366.022 204.862C366.528 204.611 366.909 204.356 367.159 204.105C368.422 203.349 369.559 202.463 370.57 201.451C372.594 199.432 373.601 197.915 373.601 196.903C373.601 195.39 372.719 194.378 370.951 193.872C369.183 193.367 367.791 193.116 366.779 193.116C363.498 193.116 359.263 194.253 354.084 196.527C348.905 198.801 343.789 201.577 338.735 204.862C333.681 208.148 329.321 211.558 325.659 215.095C321.998 218.636 320.162 221.791 320.162 224.571C320.162 228.363 324.585 230.256 333.43 230.256C334.943 230.256 336.586 230.193 338.354 230.068C340.122 229.938 342.02 229.751 344.039 229.5C344.8 229.5 345.619 229.625 346.506 229.876C347.387 230.131 347.831 230.637 347.831 231.393C347.831 232.911 345.874 234.804 341.958 237.078C338.041 239.352 333.744 242.007 329.07 245.037C324.397 248.068 320.1 251.29 316.183 254.701C312.266 258.112 310.31 261.586 310.31 265.122C310.31 268.663 311.384 271.125 313.533 272.513C315.677 273.905 318.52 274.599 322.06 274.599C327.616 274.599 333.806 273.462 340.628 271.188C347.45 268.914 352.884 266.891 356.926 265.122C361.98 263.104 367.222 260.704 372.656 257.924C378.086 255.145 383.077 252.365 387.625 249.585C392.929 246.555 398.113 243.394 403.162 240.108C403.417 240.108 403.543 240.238 403.543 240.489V242.006ZM555.899 149.844C555.899 151.549 555.33 153.192 554.193 154.646C553.056 156.097 550.339 156.983 546.047 157.171C529.874 157.932 516.167 158.501 504.923 158.877C493.683 159.195 483.638 159.638 474.792 160.144C466.708 167.973 458.499 175.05 450.159 181.366C441.82 187.682 434.747 192.861 428.937 196.903C420.848 210.547 414.027 223.184 408.471 234.804C402.912 246.425 400.132 255.27 400.132 261.335C400.132 264.617 401.081 266.89 402.974 268.157C404.868 269.419 407.334 270.051 410.365 270.051C413.145 270.051 416.3 269.608 419.841 268.726C423.378 267.839 426.851 266.702 430.262 265.315C433.673 263.923 436.833 262.535 439.738 261.143C442.643 259.755 444.98 258.681 446.748 257.924C450.79 255.901 454.644 253.815 458.306 251.671C461.972 249.522 465.195 247.562 467.971 245.793L477.447 240.108C477.702 240.108 477.827 240.238 477.827 240.489V242.006C477.827 242.763 477.635 243.582 477.259 244.468C476.879 245.355 475.929 246.174 474.416 246.93C472.143 248.699 469.613 250.471 466.834 252.239C464.309 253.752 461.466 255.52 458.306 257.544C455.15 259.567 451.677 261.586 447.885 263.609C436.515 269.67 427.039 273.78 419.461 275.924C411.882 278.072 405.691 279.146 400.888 279.146C396.596 279.146 393.373 278.515 391.224 277.253C389.08 275.986 387.374 274.598 386.108 273.081C384.845 271.313 384.089 269.294 383.834 267.02C383.834 262.472 385.476 256.344 388.762 248.636C392.048 240.932 396.403 232.28 401.837 222.678C407.272 213.076 413.525 202.968 420.598 192.355C427.67 181.746 434.998 171.384 442.581 161.281C433.485 161.782 426.976 162.037 423.06 162.037C419.143 162.037 415.924 162.037 413.395 162.037C408.342 162.037 404.362 161.975 401.457 161.849C398.552 161.719 396.403 161.469 395.016 161.151C393.628 160.775 392.742 160.332 392.361 159.826C391.985 159.32 391.793 158.877 391.793 158.371C391.793 157.426 392.173 155.972 392.93 154.141C393.69 152.31 396.215 151.298 400.512 151.048C401.775 151.048 407.397 151.048 417.375 151.048C427.357 151.048 438.664 150.918 451.296 150.667C457.107 143.277 462.729 136.392 468.163 130.076C473.593 123.693 478.772 118.138 483.7 113.46C488.629 108.724 493.051 105.062 496.964 102.345C500.881 99.6908 504.103 98.3659 506.628 98.3659C510.169 98.3659 511.937 100.259 511.937 104.113C511.937 110.935 509.408 118.326 504.354 126.222C499.305 134.118 492.984 142.014 485.406 149.911C489.703 149.911 493.49 149.844 496.776 149.718C500.061 149.593 503.092 149.53 505.872 149.53H514.211C523.813 149.275 531.454 149.024 537.139 148.774C542.824 148.518 547.058 148.393 549.834 148.393C553.88 148.393 555.899 148.899 555.899 149.844ZM500.187 112.01C500.187 110.747 499.681 110.116 498.669 110.116C495.639 110.116 490.585 113.966 483.512 121.611C476.435 129.252 468.606 138.792 460.012 150.287H478.965C484.775 143.657 489.766 137.086 493.933 130.582C498.101 124.073 500.187 117.882 500.187 112.01ZM468.351 160.519C465.571 160.519 462.666 160.519 459.636 160.519C456.601 160.519 454.076 160.645 452.053 160.9C449.022 165.193 446.054 169.678 443.149 174.356C440.244 179.029 437.272 183.64 434.242 188.188C438.539 184.902 443.718 180.923 449.779 176.25C455.844 171.576 462.035 166.33 468.351 160.519ZM676.044 83.9613C676.044 89.776 673.519 97.2914 668.465 106.638C663.411 115.989 656.84 125.967 648.756 136.705C640.671 147.444 631.701 158.501 621.849 169.996C611.992 181.491 602.139 192.23 592.287 202.337C582.43 212.445 573.272 221.348 564.807 229.182C556.342 237.016 549.587 242.7 544.534 246.237C544.279 247.754 544.09 249.267 543.965 250.785C543.835 252.302 543.773 253.69 543.773 254.889C543.773 257.669 544.278 260.198 545.29 262.472C546.047 264.491 547.121 266.259 548.513 267.777C549.901 269.294 551.987 270.051 554.766 270.051C559.059 270.051 564.807 268.471 572.009 265.315C579.212 262.155 586.221 258.681 593.043 254.889C601.128 250.341 609.592 245.417 618.438 240.108C618.688 240.108 618.814 240.238 618.814 240.489V242.006C618.814 242.763 618.626 243.582 618.245 244.468C617.869 245.355 616.92 246.174 615.403 246.93C605.55 253.502 596.204 259.312 587.359 264.366C579.78 268.663 571.946 272.642 563.862 276.304C555.774 279.966 549.207 281.801 544.153 281.801C538.088 281.801 533.732 280.158 531.078 276.873C528.423 273.587 527.098 269.039 527.098 263.291C527.098 254.701 529.623 244.088 534.677 231.456C539.731 218.887 546.427 205.493 554.766 191.41C563.101 177.261 572.39 163.174 582.623 149.212C592.855 135.193 603.276 122.623 613.89 111.379C624.499 100.134 634.606 91.1009 644.208 84.1536C653.81 77.2064 662.019 73.7282 668.841 73.7282C673.644 73.7282 676.044 77.1394 676.044 83.9613ZM662.4 92.6809C662.149 89.3953 661.581 87.1839 660.694 86.0469C659.812 84.9099 658.738 84.3416 657.471 84.3416C653.429 84.3416 648.25 86.8705 641.934 91.9242C635.618 96.9735 628.733 103.608 621.28 111.822C613.827 120.031 606.181 129.508 598.348 140.246C590.519 150.98 583.191 162.037 576.369 173.407C569.547 184.777 563.482 196.021 558.177 207.136C552.869 218.255 548.952 228.488 546.427 237.835C550.724 234.299 556.534 229.182 563.862 222.485C571.19 215.793 579.019 208.148 587.359 199.557C595.698 190.967 604.225 181.809 612.941 172.082C621.656 162.35 629.552 152.686 636.629 143.089C643.702 133.487 649.642 124.328 654.441 115.609C659.244 106.893 661.894 99.2477 662.4 92.6809ZM693.098 245.793C693.098 246.554 692.216 247.691 690.448 249.204C682.615 254.007 673.519 256.407 663.161 256.407H658.612C652.041 263.985 644.906 270.301 637.198 275.355C629.49 280.409 622.735 282.938 616.92 282.938C609.091 282.938 605.174 277.884 605.174 267.777C605.174 263.229 606.562 257.794 609.404 251.478C612.247 245.162 616.164 238.846 621.092 232.53C620.08 229.75 619.575 226.339 619.575 222.297C619.575 217.749 620.712 213.519 622.986 209.603C625.322 205.686 628.165 202.212 631.576 199.177C635.049 196.147 638.903 193.81 643.201 192.167C647.556 190.524 651.728 189.705 655.833 189.705C661.643 189.705 666.697 191.661 670.864 195.578C675.099 199.495 677.18 205.874 677.18 214.719C677.18 220.78 675.855 226.908 673.201 233.099C670.551 239.29 667.077 245.288 662.78 251.102H667.328C670.864 251.102 674.405 250.659 677.941 249.773C681.478 248.891 684.889 247.436 688.174 245.417C688.931 244.656 689.942 244.28 691.205 244.28C692.467 244.28 693.098 244.786 693.098 245.793ZM671.495 217.369C671.495 211.053 669.477 206.505 665.435 203.725C661.392 200.945 656.844 199.557 651.791 199.557C645.976 199.557 640.421 201.201 635.112 204.486C629.807 207.767 627.153 212.064 627.153 217.369C627.153 220.149 627.534 222.678 628.29 224.952C631.831 221.16 635.743 217.624 640.04 214.338C644.338 211.053 649.011 208.147 654.065 205.623C654.315 205.623 654.696 205.493 655.202 205.242C655.708 204.987 656.339 204.862 657.095 204.862C657.852 204.862 658.232 205.493 658.232 206.76C658.232 207.516 657.346 208.653 655.578 210.171C653.81 211.684 651.598 213.452 648.948 215.475C646.294 217.499 643.389 219.961 640.228 222.866C637.073 225.771 634.105 228.994 631.325 232.53C634.105 236.827 637.704 240.489 642.126 243.519C646.545 246.554 651.41 248.699 656.715 249.965C661.012 244.912 664.548 239.603 667.328 234.047C670.108 228.488 671.495 222.928 671.495 217.369ZM651.41 255.27C646.356 254.258 641.558 252.553 637.01 250.153C632.462 247.754 628.796 244.656 626.016 240.869C621.723 247.691 619.575 255.27 619.575 263.609C619.575 268.157 621.598 270.431 625.703 270.431C628.796 270.431 632.713 269.039 637.386 266.259C642.126 263.48 646.8 259.818 651.41 255.27ZM812.862 181.366C812.862 182.377 812.231 183.702 810.969 185.345C809.706 186.988 808.126 188.631 806.228 190.274C804.335 191.912 802.316 193.304 800.167 194.441C798.019 195.578 795.933 196.146 793.914 196.146C792.146 196.146 791.259 195.641 791.259 194.629C791.259 193.617 790.628 193.116 789.366 193.116C785.574 193.116 780.776 195.39 774.961 199.938C769.151 204.486 762.392 210.672 754.688 218.506C746.98 226.339 738.327 235.498 728.725 245.986C719.124 256.47 708.385 267.777 696.572 279.903C696.07 280.409 695.372 280.915 694.616 281.42C693.604 282.177 692.467 282.557 691.205 282.557C689.942 282.557 689.311 282.052 689.311 281.04C691.836 268.157 693.416 256.658 694.047 246.554C694.678 236.447 694.996 228.739 694.996 223.434V216.232C694.49 214.969 693.353 214.338 691.585 214.338C689.817 214.338 687.919 214.782 685.9 215.663C683.877 216.55 682.615 216.993 682.109 216.993C681.603 216.993 681.352 216.612 681.352 215.856C681.352 214.589 682.172 213.201 683.814 211.684C685.457 210.171 687.476 208.779 689.88 207.516C692.279 206.254 694.741 205.117 697.333 204.105C699.92 203.094 702.131 202.588 703.962 202.588C706.048 202.588 707.44 204.862 708.259 209.41C709.016 213.958 709.396 219.267 709.396 225.328C709.396 229.625 709.334 233.918 709.208 238.215C709.079 242.512 708.765 246.425 708.259 249.965C707.754 254.258 707.373 258.3 707.122 262.092C710.408 258.806 714.513 254.451 719.441 249.016C724.365 243.582 729.737 237.709 735.547 231.393C741.357 225.077 747.485 218.698 753.927 212.252C760.373 205.811 766.689 200.001 772.88 194.821C779.07 189.638 785.131 185.408 791.071 182.122C797.007 178.836 802.379 177.198 807.177 177.198C808.189 177.198 809.201 177.449 810.208 177.955C811.98 178.711 812.862 179.848 812.862 181.366ZM864.026 242.006C864.026 242.763 863.838 243.519 863.458 244.28C863.077 245.037 862.133 245.923 860.615 246.93C856.824 249.46 852.657 252.11 848.109 254.889C844.317 257.163 840.087 259.692 835.414 262.472C830.741 265.252 825.875 268.027 820.821 270.807C817.791 272.324 814.187 273.968 810.02 275.736C805.852 277.504 801.555 279.084 797.132 280.472C792.714 281.864 788.292 283 783.869 283.882C779.446 284.769 775.342 285.212 771.55 285.212C766.496 285.212 762.392 284.263 759.236 282.369C756.075 280.471 754.495 277.253 754.495 272.705C754.495 269.164 756.832 264.617 761.51 259.061C766.183 253.502 774.836 246.805 787.468 238.971C779.384 238.971 773.574 238.027 770.037 236.129C766.497 234.236 764.728 231.899 764.728 229.119C764.728 225.328 767.257 220.91 772.311 215.856C777.365 210.802 783.681 205.999 791.259 201.451C798.838 196.903 807.052 193.049 815.893 189.893C824.738 186.733 832.822 185.157 840.15 185.157C842.679 185.157 845.141 185.533 847.54 186.294C849.939 187.051 851.139 188.944 851.139 191.979C851.139 194.253 850.002 196.46 847.728 198.608C845.454 200.757 842.867 202.651 839.962 204.293C837.057 205.936 834.402 207.329 832.003 208.465C829.604 209.602 828.399 210.171 828.399 210.171C827.894 210.171 827.325 209.979 826.694 209.603C826.063 209.222 825.494 208.398 824.988 207.136C824.988 206.125 825.494 205.368 826.506 204.862C827.012 204.611 827.392 204.356 827.643 204.105C828.905 203.349 830.042 202.463 831.054 201.451C833.077 199.432 834.084 197.915 834.084 196.903C834.084 195.39 833.203 194.378 831.434 193.872C829.666 193.367 828.274 193.116 827.263 193.116C823.981 193.116 819.747 194.253 814.568 196.527C809.389 198.801 804.272 201.577 799.218 204.862C794.165 208.148 789.805 211.558 786.143 215.095C782.481 218.636 780.646 221.791 780.646 224.571C780.646 228.363 785.069 230.256 793.914 230.256C795.427 230.256 797.07 230.193 798.838 230.068C800.606 229.938 802.504 229.751 804.523 229.5C805.284 229.5 806.103 229.625 806.989 229.876C807.871 230.131 808.314 230.637 808.314 231.393C808.314 232.911 806.358 234.804 802.441 237.078C798.524 239.352 794.227 242.007 789.554 245.037C784.881 248.068 780.583 251.29 776.667 254.701C772.75 258.112 770.794 261.586 770.794 265.122C770.794 268.663 771.868 271.125 774.017 272.513C776.161 273.905 779.003 274.599 782.544 274.599C788.099 274.599 794.29 273.462 801.112 271.188C807.934 268.914 813.368 266.891 817.41 265.122C822.464 263.104 827.706 260.704 833.14 257.924C838.57 255.145 843.561 252.365 848.109 249.585C853.413 246.555 858.597 243.394 863.646 240.108C863.901 240.108 864.026 240.238 864.026 240.489V242.006ZM1015.25 199.938C1015.25 202.463 1014.24 205.243 1012.22 208.273C1010.2 211.308 1007.79 214.021 1005.01 216.425C1002.24 218.824 999.395 220.843 996.485 222.485C993.58 224.128 991.244 224.952 989.475 224.952C987.707 224.952 986.821 224.191 986.821 222.678C986.821 222.172 987.327 221.411 988.338 220.404L989.475 219.267C993.267 215.726 995.792 213.076 997.054 211.308C998.321 209.535 998.952 207.897 998.952 206.379C998.952 204.611 998.383 203.282 997.246 202.4C996.109 201.514 994.78 201.075 993.267 201.075C988.719 201.326 982.909 203.85 975.832 208.653C968.759 213.452 961.87 219.074 955.178 225.52C948.481 231.962 942.796 238.466 938.123 245.037C933.445 251.608 931.109 256.787 931.109 260.574C931.109 263.86 933.132 265.503 937.174 265.503C939.954 265.503 943.553 264.428 947.975 262.28C952.398 260.136 956.753 257.669 961.051 254.889C965.849 251.859 971.033 248.448 976.588 244.656C977.349 244.151 978.356 243.081 979.623 241.438C980.885 239.795 982.273 238.09 983.791 236.321C985.308 234.553 986.758 233.036 988.15 231.774C989.538 230.507 990.738 229.876 991.749 229.876C993.518 230.131 994.972 230.574 996.109 231.205C997.246 231.836 997.815 233.161 997.815 235.184C992.004 244.025 986.002 253.502 979.811 263.609C973.62 273.712 967.367 284.075 961.051 294.684C966.355 293.928 971.534 293.547 976.588 293.547C982.403 293.547 986.888 294.371 990.044 296.013C993.204 297.656 994.78 299.993 994.78 303.023C994.78 304.792 994.086 306.94 992.698 309.465C991.306 311.994 989.663 314.393 987.77 316.667C985.876 318.941 983.853 320.835 981.705 322.352C979.56 323.87 977.725 324.626 976.212 324.626C975.706 324.626 975.075 324.375 974.314 323.869C973.557 323.364 973.177 322.733 973.177 321.972C973.177 320.965 973.62 320.141 974.507 319.51C975.388 318.879 976.337 318.185 977.349 317.424C978.356 316.667 979.305 315.655 980.192 314.393C981.073 313.131 981.517 311.488 981.517 309.465C981.517 306.94 980.823 305.297 979.431 304.541C978.043 303.78 976.463 303.404 974.695 303.404C971.158 303.404 967.81 303.592 964.65 303.972C961.494 304.348 958.271 304.792 954.985 305.297C946.395 320.204 937.805 334.796 929.215 349.071C920.625 363.346 912.16 376.108 903.821 387.348C895.486 398.593 887.335 407.626 879.376 414.448C871.417 421.27 863.776 424.681 856.448 424.681C852.151 424.681 848.932 423.481 846.784 421.082C844.635 418.682 843.561 415.459 843.561 411.417C843.561 404.34 846.341 395.374 851.9 384.506C857.46 373.642 864.913 362.653 874.259 351.533C883.61 340.419 894.537 330.06 907.044 320.458C919.551 310.857 932.751 303.654 946.65 298.856C949.932 293.041 952.774 287.674 955.178 282.745C957.577 277.821 959.788 273.587 961.807 270.051C964.081 265.754 966.105 261.966 967.873 258.681C965.599 259.692 962.568 261.273 958.777 263.417C954.985 265.565 951.006 267.651 946.838 269.67C942.671 271.693 938.436 273.462 934.144 274.979C929.846 276.492 926.055 277.253 922.774 277.253C919.739 277.253 917.277 276.492 915.383 274.979C913.485 273.462 912.541 270.682 912.541 266.64C912.541 261.08 915.889 254.07 922.581 245.605C929.278 237.141 937.362 228.868 946.838 220.78C956.315 212.696 966.355 205.748 976.969 199.938C987.582 194.123 996.803 191.218 1004.64 191.218C1007.42 191.218 1009.5 191.599 1010.89 192.355C1012.28 193.116 1013.35 194.123 1014.11 195.39C1015.12 196.653 1015.5 198.166 1015.25 199.938ZM940.585 309.845C927.953 314.644 916.458 321.34 906.095 329.93C895.737 338.52 886.896 347.554 879.568 357.03C872.241 366.506 866.556 375.728 862.513 384.698C858.471 393.669 856.448 400.804 856.448 406.109C856.448 411.418 858.471 414.067 862.513 414.067C866.556 414.067 871.735 410.786 878.051 404.215C884.367 397.648 891.126 389.246 898.328 379.013C905.526 368.78 912.792 357.536 920.119 345.28C927.447 333.028 934.269 321.215 940.585 309.845ZM1157.37 83.9613C1157.37 89.776 1154.84 97.2914 1149.79 106.638C1144.74 115.989 1138.17 125.967 1130.08 136.705C1122 147.444 1113.03 158.501 1103.17 169.996C1093.32 181.491 1083.46 192.23 1073.61 202.337C1063.76 212.445 1054.6 221.348 1046.13 229.182C1037.67 237.016 1030.91 242.7 1025.86 246.237C1025.6 247.754 1025.42 249.267 1025.29 250.785C1025.16 252.302 1025.1 253.69 1025.1 254.889C1025.1 257.669 1025.6 260.198 1026.62 262.472C1027.37 264.491 1028.45 266.259 1029.84 267.777C1031.23 269.294 1033.31 270.051 1036.09 270.051C1040.38 270.051 1046.13 268.471 1053.33 265.315C1060.54 262.155 1067.55 258.681 1074.37 254.889C1082.45 250.341 1090.92 245.417 1099.76 240.108C1100.01 240.108 1100.14 240.238 1100.14 240.489V242.006C1100.14 242.763 1099.95 243.582 1099.57 244.468C1099.19 245.355 1098.25 246.174 1096.73 246.93C1086.88 253.502 1077.53 259.312 1068.68 264.366C1061.11 268.663 1053.27 272.642 1045.19 276.304C1037.1 279.966 1030.53 281.801 1025.48 281.801C1019.41 281.801 1015.06 280.158 1012.4 276.873C1009.75 273.587 1008.42 269.039 1008.42 263.291C1008.42 254.701 1010.95 244.088 1016 231.456C1021.06 218.887 1027.75 205.493 1036.09 191.41C1044.43 177.261 1053.72 163.174 1063.95 149.212C1074.18 135.193 1084.6 122.623 1095.22 111.379C1105.82 100.134 1115.93 91.1009 1125.53 84.1536C1135.13 77.2064 1143.34 73.7282 1150.17 73.7282C1154.97 73.7282 1157.37 77.1394 1157.37 83.9613ZM1143.72 92.6809C1143.47 89.3953 1142.91 87.1839 1142.02 86.0469C1141.14 84.9099 1140.06 84.3416 1138.8 84.3416C1134.75 84.3416 1129.58 86.8705 1123.26 91.9242C1116.94 96.9735 1110.06 103.608 1102.61 111.822C1095.15 120.031 1087.51 129.508 1079.67 140.246C1071.84 150.98 1064.52 162.037 1057.69 173.407C1050.87 184.777 1044.81 196.021 1039.5 207.136C1034.19 218.255 1030.28 228.488 1027.75 237.835C1032.05 234.299 1037.86 229.182 1045.19 222.485C1052.52 215.793 1060.34 208.148 1068.68 199.557C1077.02 190.967 1085.55 181.809 1094.27 172.082C1102.98 162.35 1110.88 152.686 1117.95 143.089C1125.03 133.487 1130.97 124.328 1135.77 115.609C1140.57 106.893 1143.22 99.2477 1143.72 92.6809Z" fill="#2B2A29"/>
<path d="M1174.4 245.794C1174.4 246.555 1173.52 247.692 1171.75 249.205C1163.92 254.008 1154.82 256.408 1144.46 256.408H1139.91C1133.34 263.986 1126.21 270.302 1118.5 275.356C1110.79 280.41 1104.04 282.939 1098.22 282.939C1090.39 282.939 1086.48 277.885 1086.48 267.778C1086.48 263.23 1087.86 257.795 1090.71 251.479C1093.55 245.163 1097.47 238.847 1102.39 232.531C1101.38 229.751 1100.88 226.34 1100.88 222.298C1100.88 217.75 1102.01 213.52 1104.29 209.603C1106.62 205.687 1109.47 202.213 1112.88 199.178C1116.35 196.147 1120.21 193.811 1124.5 192.168C1128.86 190.525 1133.03 189.706 1137.14 189.706C1142.95 189.706 1148 191.662 1152.17 195.579C1156.4 199.496 1158.48 205.874 1158.48 214.72C1158.48 220.781 1157.16 226.909 1154.5 233.1C1151.85 239.29 1148.38 245.289 1144.08 251.103H1148.63C1152.17 251.103 1155.71 250.66 1159.24 249.774C1162.78 248.892 1166.19 247.437 1169.48 245.418C1170.23 244.657 1171.24 244.281 1172.51 244.281C1173.77 244.281 1174.4 244.787 1174.4 245.794ZM1152.8 217.37C1152.8 211.053 1150.78 206.506 1146.74 203.726C1142.69 200.946 1138.15 199.558 1133.09 199.558C1127.28 199.558 1121.72 201.201 1116.41 204.487C1111.11 207.768 1108.46 212.065 1108.46 217.37C1108.46 220.149 1108.84 222.679 1109.59 224.953C1113.13 221.161 1117.05 217.625 1121.34 214.339C1125.64 211.054 1130.31 208.148 1135.37 205.624C1135.62 205.624 1136 205.494 1136.5 205.243C1137.01 204.988 1137.64 204.863 1138.4 204.863C1139.15 204.863 1139.53 205.494 1139.53 206.761C1139.53 207.517 1138.65 208.654 1136.88 210.172C1135.11 211.685 1132.9 213.453 1130.25 215.476C1127.6 217.5 1124.69 219.961 1121.53 222.867C1118.37 225.772 1115.41 228.995 1112.63 232.531C1115.41 236.828 1119.01 240.49 1123.43 243.52C1127.85 246.555 1132.71 248.699 1138.02 249.966C1142.31 244.912 1145.85 239.603 1148.63 234.048C1151.41 228.489 1152.8 222.929 1152.8 217.37ZM1132.71 255.271C1127.66 254.259 1122.86 252.554 1118.31 250.154C1113.76 247.755 1110.1 244.657 1107.32 240.87C1103.03 247.692 1100.88 255.27 1100.88 263.61C1100.88 268.158 1102.9 270.432 1107 270.432C1110.1 270.432 1114.01 269.04 1118.69 266.26C1123.43 263.48 1128.1 259.818 1132.71 255.271ZM1320.32 205.624C1320.32 207.137 1319.68 208.399 1318.42 209.411C1313.87 213.202 1309.2 216.488 1304.4 219.268C1300.1 221.792 1295.43 224.129 1290.37 226.278C1285.32 228.426 1280.27 229.751 1275.22 230.257C1269.15 236.828 1262.83 243.27 1256.26 249.586C1249.7 255.902 1243.44 261.524 1237.5 266.453C1231.57 271.377 1226.39 275.293 1221.97 278.199C1217.54 281.104 1214.58 282.558 1213.06 282.558C1210.53 282.558 1209.27 281.296 1209.27 278.767C1209.27 277.76 1209.65 276.242 1210.41 274.219C1211.16 272.956 1212.36 269.926 1214.01 265.123C1215.65 260.325 1217.29 255.271 1218.94 249.966C1220.58 244.657 1222.03 239.796 1223.29 235.374C1224.56 230.951 1225.19 228.614 1225.19 228.364C1225.19 228.364 1224.93 228.234 1224.43 227.983C1223.67 227.983 1222.66 228.614 1221.4 229.877C1220.64 230.382 1217.67 232.782 1212.49 237.079C1207.31 241.376 1201.82 246.049 1196 251.103C1189.18 256.914 1181.35 263.355 1172.51 270.432L1167.96 274.219C1166.7 275.23 1165.43 276.117 1164.17 276.874C1162.91 277.63 1161.89 278.011 1161.14 278.011C1159.87 277.505 1158.99 277.191 1158.48 277.062C1157.98 276.936 1157.73 276.493 1157.73 275.737C1157.73 274.725 1158.61 272.576 1160.38 269.295C1161.14 267.777 1162.46 264.555 1164.36 259.631C1166.25 254.702 1168.21 249.268 1170.23 243.332C1172.26 237.397 1174.02 231.645 1175.54 226.09C1177.05 220.53 1177.81 216.362 1177.81 213.583C1177.81 211.559 1177.44 210.548 1176.67 210.548C1175.41 210.548 1173.39 211.372 1170.61 213.014C1167.83 214.657 1165.94 215.476 1164.93 215.476C1164.42 215.476 1164.17 215.096 1164.17 214.339C1164.17 213.077 1164.99 211.685 1166.63 210.172C1168.28 208.654 1170.3 207.262 1172.69 206C1175.1 204.738 1177.56 203.601 1180.09 202.589C1182.61 201.577 1184.76 201.076 1186.53 201.076C1188.55 201.076 1190 201.833 1190.89 203.35C1191.77 204.863 1192.22 206.631 1192.22 208.654C1192.22 210.928 1191.9 214.151 1191.27 218.319C1190.64 222.486 1189.81 226.909 1188.81 231.582C1187.79 236.26 1186.84 240.615 1185.96 244.657C1185.08 248.699 1184.38 251.609 1183.88 253.377C1183.88 253.377 1184.13 253.503 1184.63 253.753C1190.95 248.449 1197.01 243.395 1202.83 238.596C1207.88 234.299 1213 229.877 1218.17 225.329C1223.35 220.781 1227.59 216.864 1230.87 213.583C1232.89 211.559 1235.17 209.603 1237.7 207.705C1240.22 205.812 1241.99 204.863 1243 204.863C1243.76 204.863 1244.71 205.118 1245.84 205.624C1246.98 206.125 1247.55 207.392 1247.55 209.411C1247.55 211.179 1246.67 214.908 1244.89 220.593C1243.13 226.278 1241.11 232.28 1238.83 238.596C1236.56 244.912 1234.54 250.785 1232.77 256.22C1231 261.649 1230.11 265.253 1230.11 267.021C1230.11 267.021 1231.32 265.947 1233.72 263.798C1236.12 261.65 1239.15 258.869 1242.81 255.458C1246.47 252.048 1250.58 248.131 1255.13 243.713C1259.67 239.29 1264.22 234.68 1268.77 229.877C1263.22 229.12 1260.44 225.96 1260.44 220.405C1260.44 215.351 1262.02 210.36 1265.17 205.431C1268.33 200.507 1272.06 196.022 1276.35 191.98C1280.65 187.933 1285.07 184.652 1289.62 182.123C1294.16 179.598 1297.96 178.336 1300.99 178.336C1304.27 178.336 1305.91 179.974 1305.91 183.26C1305.91 187.808 1303.58 193.618 1298.9 200.695C1294.23 207.768 1288.35 215.351 1281.28 223.435H1283.93C1286.46 223.435 1289.68 222.423 1293.6 220.405C1297.51 218.381 1301.37 216.107 1305.15 213.583C1309.7 210.803 1314.5 207.643 1319.56 204.106C1320.06 204.106 1320.32 204.612 1320.32 205.624ZM1293.03 191.98C1293.03 190.463 1292.27 189.706 1290.75 189.706C1289.24 189.706 1287.34 190.4 1285.07 191.788C1282.79 193.18 1280.58 195.073 1278.43 197.472C1276.29 199.872 1274.39 202.652 1272.75 205.812C1271.11 208.968 1270.29 212.316 1270.29 215.857C1270.29 217.875 1270.86 219.33 1271.99 220.212C1273.13 221.099 1274.46 221.792 1275.97 222.298C1280.78 216.488 1284.82 210.991 1288.1 205.812C1291.38 200.633 1293.03 196.022 1293.03 191.98Z" fill="#2B2A29"/>
</svg>
