<svg width="486" height="304" viewBox="0 0 486 304" fill="none" xmlns="http://www.w3.org/2000/svg">
<path d="M100.427 200.295C100.427 202.135 99.9713 204.621 99.0589 207.776C98.1477 210.907 96.892 214.474 95.2965 218.434C93.6986 222.417 91.852 226.768 89.7555 231.464C87.6577 236.183 85.4448 240.994 83.1189 245.921C80.7943 250.846 78.4454 255.819 76.0722 260.837C73.7015 265.855 71.3744 270.713 69.0947 275.408C72.0138 275.225 75.0009 274.81 78.0571 274.167C81.1122 273.522 83.6891 272.693 85.7869 271.68C86.5161 271.311 86.9504 270.897 87.0863 270.436C87.2234 269.977 87.3836 269.746 87.5656 269.746C88.114 269.746 88.5459 269.93 88.865 270.299C89.1841 270.667 89.3454 271.036 89.3454 271.405C89.3454 272.325 88.6842 273.131 87.3605 273.82C86.0381 274.512 84.3504 275.133 82.2987 275.686C80.2459 276.238 77.9431 276.698 75.3891 277.067C72.834 277.435 70.3723 277.711 67.9991 277.896C66.6317 280.843 65.3093 283.673 64.0329 286.39C62.7553 289.107 61.6148 291.661 60.6115 294.056C60.2463 294.793 59.6991 295.16 58.9699 295.16C57.5116 295.16 56.6671 294.539 56.4378 293.296C56.2109 292.052 56.0969 290.833 56.0969 289.636C55.9137 287.978 55.6625 286.16 55.3434 284.18C55.0244 282.2 54.6361 280.106 54.1799 277.896C50.2586 277.619 46.6334 277.067 43.3041 276.238C39.9749 275.408 36.8507 274.349 33.9316 273.062V273.199C30.6485 277.344 27.2731 281.256 23.8068 284.94C20.3405 288.622 17.1933 291.892 14.3651 294.745C11.082 298.061 7.84379 301.145 4.65167 304C3.1921 304 2.16566 303.77 1.57358 303.31C0.980292 302.849 0.592063 302.389 0.410072 301.928C0.135872 301.56 0 301.146 0 300.684C0 300.502 0.0897822 300.318 0.272986 300.132C5.28987 296.358 10.2388 291.983 15.1173 287.012C19.9971 282.039 24.9 276.745 29.8271 271.127C23.8978 267.904 19.4512 264.061 16.4859 259.593C13.5219 255.127 12.0393 251.008 12.0393 247.231C12.0393 244.01 13.1337 241.292 15.3236 239.084C17.5124 236.874 20.8877 235.768 25.4484 235.768C30.1001 235.768 34.1827 237.149 37.6939 239.912C41.2051 242.674 44.1923 246.128 46.6552 250.272C52.1064 243.366 57.3041 236.643 62.2082 230.082C67.111 223.521 71.6947 217.72 75.9133 212.701C80.1549 207.66 83.9852 203.586 87.4527 200.502C90.9178 197.392 93.8139 195.852 96.1858 195.852C97.9863 195.852 99.128 196.334 99.6521 197.301C100.176 198.268 100.427 199.28 100.427 200.295ZM95.2274 202.066C95.2274 201.423 95.1133 200.868 94.8864 200.409C94.6571 199.949 94.224 199.718 93.5858 199.718C92.2184 199.718 89.9824 201.354 86.8813 204.621C83.7801 207.891 80.1767 212.126 76.0722 217.329C71.9677 222.531 67.5211 228.332 62.7335 234.733C57.9435 241.132 53.2239 247.463 48.571 253.724C50.3945 257.223 51.9232 260.837 53.1547 264.566C54.3874 268.295 55.4114 271.727 56.234 274.856C57.5115 275.041 58.7867 275.179 60.0643 275.27C61.3407 275.363 62.6182 275.408 63.8946 275.408C65.6284 271.818 67.589 267.652 69.779 262.91C71.9677 258.168 74.2256 253.264 76.5503 248.199C78.8773 243.134 81.1571 238.07 83.3919 233.006C85.628 227.94 87.6117 223.291 89.3454 219.054C91.0768 214.82 92.4914 211.183 93.5858 208.144C94.6802 205.106 95.2274 203.08 95.2274 202.066ZM53.3597 274.443C52.6306 271.405 51.7631 268.295 50.7609 265.119C49.7575 261.942 48.5261 258.88 47.0653 255.934C45.3339 258.328 43.6232 260.608 41.9355 262.772C40.2479 264.934 38.5833 267.076 36.9417 269.194C39.3125 270.39 41.8676 271.449 44.6035 272.37C47.3407 273.291 50.2586 273.983 53.3597 274.443ZM45.1507 252.204C42.78 248.061 40.0198 244.677 36.8725 242.053C33.7265 239.429 30.1001 238.116 25.9956 238.116C22.5292 238.116 20.0214 238.831 18.4708 240.257C16.9191 241.684 16.1438 243.457 16.1438 245.574C16.1438 248.705 17.6046 252.252 20.5225 256.211C23.4416 260.17 27.6371 263.762 33.1102 266.983C35.2092 264.59 37.2378 262.15 39.1996 259.662C41.1603 257.178 43.144 254.692 45.1507 252.204ZM60.6115 278.033H57.0554C57.4193 279.322 57.6705 280.497 57.8064 281.556C57.9435 282.615 58.1036 283.513 58.2844 284.249C58.4676 285.17 58.6047 285.998 58.6969 286.735C59.0609 286.091 59.4261 285.309 59.7901 284.388C60.1553 283.651 60.5896 282.73 61.0895 281.625C61.5918 280.52 62.162 279.322 62.8014 278.033H60.6115ZM422.644 197.923C422.644 198.015 422.348 198.338 421.756 198.89C421.161 199.443 420.295 200.041 419.156 200.684C418.015 201.33 416.556 201.883 414.777 202.344C412.997 202.804 410.877 203.033 408.414 203.033C399.839 203.033 392.589 203.033 386.659 203.033C380.73 203.033 375.827 203.033 371.952 203.033C368.074 203.033 364.996 203.011 362.715 202.964C360.434 202.918 358.725 202.895 357.586 202.895C356.445 202.895 355.647 202.895 355.191 202.895C354.734 202.895 354.324 202.895 353.959 202.895C347.208 202.895 340.686 203.54 334.394 204.829C328.099 206.118 322.239 207.822 316.811 209.939C311.384 212.057 306.459 214.474 302.035 217.191C297.611 219.907 293.826 222.647 290.68 225.409C287.531 228.172 285.091 230.865 283.357 233.49C281.626 236.114 280.76 238.439 280.76 240.465C280.76 242.307 281.58 243.801 283.222 244.954C284.863 246.104 287.418 246.679 290.885 246.679C293.621 246.679 296.858 246.15 300.598 245.091C304.337 244.033 308.238 242.514 312.297 240.534C316.355 238.554 320.391 236.159 324.406 233.351C328.418 230.543 332.022 227.435 335.215 224.027L336.035 223.199C336.492 222.738 336.902 222.508 337.267 222.508C337.449 222.508 337.54 222.647 337.54 222.922C337.54 223.199 337.494 223.429 337.403 223.614C336.217 226.376 334.027 229.414 330.835 232.729C327.643 236.045 323.858 239.106 319.479 241.915C315.102 244.722 310.358 247.094 305.25 249.028C300.142 250.961 295.079 251.929 290.062 251.929C285.958 251.929 282.901 251.077 280.896 249.373C278.889 247.669 277.884 245.437 277.884 242.674C277.884 238.807 279.733 234.295 283.427 229.139C287.121 223.981 292.411 219.078 299.299 214.428C306.184 209.779 314.599 205.842 324.542 202.619C334.484 199.397 345.704 197.784 358.201 197.784C366.137 197.784 373.64 197.784 380.708 197.784C387.777 197.784 394.048 197.761 399.521 197.715C404.993 197.67 409.441 197.624 412.861 197.577C416.283 197.532 418.356 197.463 419.088 197.371C419.177 197.278 419.361 197.232 419.634 197.232H421.002C421.458 197.232 421.845 197.278 422.166 197.371C422.485 197.463 422.644 197.646 422.644 197.923ZM365.315 263.944C365.315 264.222 365.132 264.59 364.768 265.049C364.403 265.51 363.947 265.948 363.401 266.362C362.852 266.776 362.237 267.123 361.552 267.398C360.869 267.675 360.207 267.812 359.569 267.812C358.566 267.812 356.422 267.766 353.138 267.675C349.855 267.583 345.932 267.537 341.371 267.537H332.888C330.06 273.062 327.484 278.148 325.157 282.8C322.833 287.449 320.94 291.155 319.479 293.918C319.388 294.195 319.206 294.516 318.933 294.884C318.385 295.62 317.746 296.127 317.016 296.403C316.287 296.772 315.58 297.073 314.897 297.302C314.211 297.532 313.642 297.646 313.186 297.646C312.364 297.646 311.954 297.417 311.954 296.956C311.954 296.864 312.343 296.012 313.118 294.401C313.893 292.788 314.964 290.671 316.333 288.047C317.7 285.424 319.297 282.362 321.121 278.862C322.945 275.363 324.861 271.634 326.869 267.675C322.308 267.859 317.791 268.066 313.323 268.295C308.853 268.527 304.704 268.871 300.872 269.331C300.142 269.331 299.777 269.147 299.777 268.78C299.777 268.596 299.914 268.342 300.187 268.02C300.462 267.697 300.781 267.352 301.145 266.983L302.377 265.741C302.65 265.649 302.97 265.51 303.335 265.326C303.881 265.143 304.931 264.958 306.481 264.774C307.211 264.683 309.721 264.499 314.006 264.222C318.294 263.944 323.311 263.715 329.057 263.53C332.159 257.545 335.305 251.515 338.498 245.437C341.69 239.36 344.587 233.834 347.187 228.861C349.785 223.89 351.883 219.815 353.481 216.639C355.077 213.462 355.83 211.828 355.738 211.735C355.92 211.459 356.149 211.183 356.422 210.907C356.605 210.723 356.878 210.515 357.242 210.285C357.607 210.055 358.017 209.848 358.474 209.664C359.478 209.204 360.298 208.927 360.937 208.834C361.303 208.743 361.621 208.649 361.895 208.558C362.076 208.558 362.259 208.649 362.442 208.834C362.532 208.927 362.578 209.018 362.578 209.11C362.578 209.295 362.488 209.57 362.305 209.939C362.122 210.215 361.188 212.034 359.5 215.395C357.812 218.756 355.669 222.969 353.069 228.034C350.47 233.098 347.597 238.714 344.449 244.885C341.303 251.054 338.179 257.178 335.077 263.255C337.905 263.162 340.686 263.092 343.423 263.048C346.159 263.001 348.759 262.978 351.222 262.978H356.422C359.979 262.978 362.351 263.047 363.537 263.186C364.722 263.324 365.315 263.578 365.315 263.944ZM132.033 224.579C132.033 226.699 131.121 229.437 129.296 232.844C127.471 236.252 125.099 239.889 122.181 243.801C119.262 247.717 116.024 251.745 112.467 255.934C108.909 260.123 105.352 264.038 101.795 267.721C98.2375 271.404 94.9314 274.65 91.8751 277.504C88.8189 280.36 86.3802 282.431 84.5554 283.72C84.4632 284.271 84.3953 284.823 84.3504 285.377C84.3043 285.929 84.2824 286.436 84.2824 286.874C84.2824 287.886 84.4632 288.807 84.8284 289.636C85.1014 290.373 85.4896 291.017 85.9919 291.569C86.493 292.121 87.2452 292.399 88.2486 292.399C89.7992 292.399 91.8751 291.823 94.4751 290.671C97.074 289.521 99.6061 288.256 102.068 286.874C104.987 285.215 108.043 283.42 111.235 281.487C111.326 281.487 111.372 281.532 111.372 281.625V282.177C111.372 282.453 111.303 282.752 111.167 283.075C111.03 283.398 110.687 283.696 110.141 283.974C106.584 286.367 103.208 288.485 100.016 290.327C97.279 291.892 94.4509 293.342 91.5329 294.678C88.6138 296.012 86.2431 296.681 84.4183 296.681C82.2284 296.681 80.656 296.08 79.6975 294.884C78.7402 293.688 78.261 292.03 78.261 289.935C78.261 286.805 79.1733 282.937 80.9969 278.334C82.8216 273.751 85.2385 268.871 88.2486 263.738C91.26 258.581 94.611 253.448 98.3066 248.361C102 243.249 105.762 238.668 109.594 234.571C113.424 230.474 117.072 227.182 120.54 224.649C124.006 222.118 126.97 220.851 129.433 220.851C131.165 220.851 132.033 222.095 132.033 224.579ZM127.106 227.758C127.016 226.56 126.811 225.754 126.491 225.34C126.172 224.926 125.784 224.719 125.327 224.719C123.869 224.719 121.998 225.639 119.718 227.48C117.438 229.322 114.953 231.739 112.262 234.733C109.569 237.725 106.812 241.178 103.985 245.091C101.155 249.004 98.5117 253.034 96.0475 257.178C93.5846 261.32 91.3971 265.418 89.4801 269.469C87.5655 273.522 86.1509 277.25 85.2385 280.657C86.789 279.37 88.8868 277.504 91.5329 275.064C94.1779 272.624 97.006 269.838 100.016 266.707C103.026 263.578 106.104 260.239 109.25 256.694C112.399 253.148 115.248 249.626 117.804 246.128C120.357 242.629 122.501 239.29 124.233 236.114C125.967 232.936 126.924 230.151 127.106 227.758ZM133.675 254.276C133.675 255.75 133.035 257.201 131.759 258.628C130.481 260.054 129.067 260.768 127.517 260.768C126.787 260.768 126.286 260.514 126.013 260.009C125.738 259.502 125.602 258.973 125.602 258.42C125.602 257.223 125.853 256.233 126.355 255.45C126.855 254.667 127.449 254.046 128.133 253.586C128.818 253.125 129.501 252.803 130.187 252.618C130.87 252.436 131.348 252.343 131.623 252.343C132.442 252.343 132.99 252.549 133.265 252.965C133.538 253.379 133.675 253.816 133.675 254.276ZM136.138 282.177C136.138 282.453 136.069 282.752 135.933 283.075C135.796 283.398 135.452 283.696 134.906 283.974C131.348 286.367 127.974 288.485 124.781 290.327C122.044 291.892 119.216 293.342 116.298 294.678C113.379 296.012 111.03 296.681 109.229 296.681C107.814 296.681 106.88 296.289 106.423 295.506C105.992 294.724 105.762 293.918 105.762 293.089C105.762 291.798 106.15 290.235 106.904 288.393C107.655 286.551 108.635 284.617 109.845 282.592C111.053 280.566 112.421 278.494 113.972 276.375C115.523 274.258 117.072 272.325 118.623 270.575L119.171 270.023C119.535 269.654 119.947 269.469 120.403 269.469C121.133 269.469 121.77 269.654 122.319 270.023C122.592 270.206 122.821 270.436 123.002 270.713C123.002 271.082 122.821 271.449 122.454 271.818C121.633 272.739 120.585 274.098 119.308 275.892C118.031 277.688 116.776 279.552 115.545 281.487C114.313 283.42 113.242 285.239 112.331 286.943C111.418 288.646 110.962 289.912 110.962 290.74C110.962 291.2 111.075 291.5 111.303 291.638C111.531 291.777 111.782 291.938 112.057 292.121C112.421 292.306 112.741 292.399 113.014 292.399C114.565 292.399 116.64 291.823 119.24 290.671C121.839 289.521 124.37 288.256 126.833 286.874C129.752 285.215 132.809 283.42 136.001 281.487C136.092 281.487 136.138 281.532 136.138 281.625V282.177ZM183.751 222.37C183.751 224.235 182.998 226.467 181.494 229.093C179.989 231.739 178.051 234.571 175.678 237.633C173.308 240.672 170.661 243.801 167.742 247.049C164.824 250.272 161.905 253.379 158.986 256.326C156.067 259.296 153.308 261.99 150.708 264.429C148.109 266.869 145.988 268.825 144.347 270.299C143.709 271.404 143.069 272.532 142.431 273.682C141.793 274.834 141.155 276.009 140.515 277.205C142.34 275.363 144.279 273.545 146.33 271.749C148.383 269.953 150.503 268.319 152.693 266.845C154.882 265.372 157.118 264.198 159.397 263.324C161.677 262.449 163.957 262.011 166.238 262.011C168.337 262.011 169.91 262.38 170.959 263.117C172.008 263.853 172.532 264.865 172.532 266.155C172.532 267.443 171.962 268.895 170.823 270.505C169.681 272.117 168.061 273.614 165.964 274.995C163.867 276.375 161.29 277.528 158.235 278.449C155.179 279.37 151.736 279.83 147.904 279.83C146.901 281.325 146.398 282.984 146.398 284.848C146.398 287.84 146.992 289.889 148.177 290.994C149.364 292.121 150.777 292.674 152.42 292.674C154.425 292.674 156.569 292.169 158.849 291.155C161.13 290.142 162.955 289.268 164.322 288.531C164.505 288.347 164.642 288.256 164.732 288.256C166.193 287.517 167.606 286.759 168.974 285.976C170.342 285.192 171.529 284.479 172.532 283.834C173.718 283.098 174.858 282.362 175.953 281.625C176.045 281.625 176.088 281.671 176.088 281.762V282.314C176.088 282.592 176.02 282.891 175.883 283.213C175.747 283.536 175.405 283.835 174.858 284.111C174.037 284.663 173.124 285.261 172.122 285.907C171.301 286.459 170.32 287.081 169.181 287.77C168.04 288.462 166.83 289.177 165.555 289.912C164.459 290.557 163.206 291.269 161.791 292.052C160.379 292.813 158.895 293.549 157.345 294.217C155.794 294.884 154.242 295.437 152.693 295.874C151.142 296.312 149.684 296.541 148.315 296.541C146.309 296.541 144.666 295.898 143.388 294.608C142.111 293.32 141.474 290.925 141.474 287.426C141.474 286.414 141.542 285.33 141.679 284.18C141.816 283.029 142.089 281.97 142.499 281.003C142.91 280.037 143.457 279.207 144.142 278.518C144.825 277.826 145.669 277.481 146.671 277.481C150.139 277.481 153.126 277.181 155.635 276.583C158.143 275.985 160.218 275.225 161.859 274.304C163.501 273.383 164.71 272.416 165.486 271.405C166.261 270.39 166.649 269.424 166.649 268.504C166.649 266.477 165.188 265.464 162.272 265.464C161.723 265.464 160.788 265.58 159.467 265.81C158.143 266.039 156.455 266.731 154.404 267.881C152.349 269.034 149.911 270.828 147.084 273.268C144.255 275.708 140.971 279.092 137.232 283.42C136.046 285.63 134.883 287.84 133.743 290.05C132.603 292.259 131.44 294.561 130.255 296.956C130.071 297.233 129.889 297.462 129.706 297.646C129.342 298.015 128.886 298.2 128.338 298.2C127.699 298.2 127.084 298.038 126.491 297.716C125.899 297.393 125.602 296.91 125.602 296.266C125.602 295.714 125.784 295.068 126.15 294.332C126.514 293.595 127.335 292.076 128.612 289.75C129.889 287.449 131.257 285.008 132.716 282.431C134.359 279.392 136.227 276.146 138.325 272.739C140.425 269.056 142.705 265.143 145.167 260.975C147.63 256.832 150.162 252.781 152.762 248.798C155.361 244.837 157.984 241.039 160.628 237.38C163.274 233.743 165.806 230.543 168.223 227.78C170.64 224.996 172.897 222.807 174.995 221.197C177.093 219.586 178.918 218.779 180.468 218.779C181.105 218.779 181.654 218.963 182.11 219.332C182.566 219.609 182.954 219.975 183.273 220.436C183.591 220.896 183.751 221.541 183.751 222.37ZM179.237 224.027C179.237 223.107 179.008 222.647 178.551 222.647C177.184 222.647 175.451 223.659 173.352 225.685C171.255 227.711 168.884 230.565 166.238 234.248C163.593 237.932 160.652 242.376 157.412 247.578C154.174 252.781 150.777 258.56 147.22 264.912C149.045 263.162 151.096 261.182 153.377 258.973C155.657 256.763 157.984 254.415 160.355 251.929C162.727 249.442 165.052 246.887 167.332 244.262C169.613 241.639 171.62 239.106 173.352 236.666C175.086 234.226 176.5 231.902 177.595 229.691C178.688 227.48 179.237 225.594 179.237 224.027ZM269.404 299.027C269.404 299.673 268.992 300.18 268.172 300.547C267.807 300.732 267.397 300.824 266.941 300.824C263.931 300.364 261.033 298.982 258.252 296.681C255.47 294.379 252.892 291.798 250.521 288.945C245.321 292.813 239.621 295.898 233.419 298.2C227.217 300.502 221.242 301.653 215.494 301.653C208.471 301.653 202.793 299.88 198.461 296.334C194.127 292.788 191.962 287.701 191.962 281.072C191.962 275.915 193.124 271.151 195.451 266.776C197.776 262.403 200.81 258.351 204.549 254.623C208.29 250.893 212.462 247.394 217.068 244.124C221.675 240.857 226.258 237.747 230.819 234.802C231.002 231.855 231.321 229.184 231.778 226.79C232.234 224.396 232.69 222.37 233.145 220.714C233.692 218.779 234.285 217.03 234.924 215.464C236.657 211.873 238.572 209.065 240.67 207.039C242.767 205.013 244.797 203.494 246.758 202.481C248.72 201.468 250.475 200.847 252.026 200.616C253.578 200.386 254.672 200.27 255.312 200.27C255.492 200.27 255.879 200.295 256.473 200.339C257.066 200.386 257.728 200.616 258.458 201.031C259.187 201.445 259.826 202.112 260.372 203.033C260.921 203.954 261.193 205.244 261.193 206.901C261.193 209.664 260.464 212.333 259.005 214.912C257.545 217.49 255.584 220.022 253.122 222.508C250.657 224.996 247.83 227.48 244.638 229.966C241.446 232.454 238.117 234.94 234.651 237.427C234.74 240.096 235.107 242.905 235.745 245.852C236.383 248.798 237.158 251.975 238.071 255.381C238.071 255.474 238.117 255.657 238.207 255.934C238.39 256.486 238.526 256.993 238.618 257.454C241.901 255.519 245.3 253.955 248.811 252.757C252.323 251.56 255.538 250.961 258.458 250.961C258.73 250.961 259.438 251.008 260.577 251.099C261.719 251.193 262.926 251.537 264.203 252.135C265.48 252.735 266.62 253.677 267.624 254.967C268.628 256.257 269.128 258.052 269.128 260.354C269.128 264.958 267.761 269.447 265.024 273.82C262.289 278.195 258.73 282.223 254.353 285.907C256.177 288.024 258.138 289.957 260.236 291.707C262.334 293.458 264.568 294.93 266.941 296.127C267.397 296.312 267.807 296.587 268.172 296.956C268.992 297.602 269.404 298.292 269.404 299.027ZM257.636 207.728C257.636 206.716 257.453 205.934 257.089 205.382C256.724 204.829 256.314 204.368 255.858 204C255.312 203.631 254.672 203.402 253.943 203.31C253.395 203.31 252.596 203.402 251.548 203.586C250.5 203.769 249.336 204.186 248.059 204.829C246.782 205.473 245.435 206.441 244.022 207.728C242.609 209.018 241.217 210.769 239.848 212.978C239.028 214.543 238.253 216.294 237.524 218.227C236.884 219.884 236.314 221.91 235.814 224.304C235.312 226.699 234.97 229.368 234.787 232.315C237.888 230.198 240.829 228.149 243.612 226.17C246.394 224.189 248.811 222.186 250.862 220.16C252.916 218.136 254.558 216.11 255.79 214.083C257.021 212.057 257.636 209.939 257.636 207.728ZM264.203 263.117C264.203 262.932 264.158 262.38 264.068 261.459C263.976 260.538 263.633 259.593 263.04 258.628C262.448 257.661 261.536 256.787 260.304 256.003C259.073 255.221 257.317 254.829 255.036 254.829C253.304 254.829 251.046 255.29 248.264 256.211C245.482 257.132 242.632 258.512 239.712 260.354C240.807 263.301 242.473 266.938 244.706 271.266C246.941 275.593 249.701 279.874 252.984 284.111C256.177 281.349 258.846 278.217 260.99 274.719C263.131 271.22 264.203 267.352 264.203 263.117ZM249.016 287.012C247.648 285.17 246.417 283.398 245.321 281.694C244.228 279.99 243.27 278.449 242.448 277.067C241.446 275.408 240.624 273.889 239.987 272.507C238.982 270.943 238.162 269.4 237.524 267.881C236.884 266.362 236.292 264.82 235.745 263.255C233.646 265.097 231.778 267.145 230.136 269.4C228.492 271.656 227.399 274.167 226.851 276.93C226.761 277.205 226.624 277.528 226.44 277.896C226.167 278.54 225.665 278.862 224.936 278.862C224.48 278.862 224.047 278.655 223.637 278.24C223.226 277.826 223.019 276.975 223.019 275.686C223.019 273.108 224.115 270.459 226.305 267.743C228.492 265.028 231.275 262.472 234.651 260.079C233.373 256.302 232.461 252.757 231.913 249.442C231.365 246.128 231.002 242.997 230.819 240.05C226.804 242.997 222.838 246.012 218.915 249.097C214.993 252.183 211.505 255.45 208.449 258.904C205.393 262.356 202.93 266.018 201.061 269.886C199.19 273.751 198.256 277.896 198.256 282.314C198.256 287.196 199.693 291.131 202.566 294.126C205.439 297.117 210.342 298.613 217.273 298.613C218.914 298.613 220.99 298.36 223.499 297.854C226.007 297.348 228.697 296.612 231.573 295.645C234.446 294.678 237.387 293.48 240.397 292.052C243.407 290.626 246.28 288.945 249.016 287.012ZM402.804 224.579C402.804 226.699 401.893 229.437 400.068 232.844C398.244 236.252 395.872 239.889 392.954 243.801C390.035 247.717 386.795 251.745 383.239 255.934C379.68 260.123 376.124 264.038 372.566 267.721C369.01 271.404 365.702 274.65 362.647 277.504C359.591 280.36 357.151 282.431 355.328 283.72C355.235 284.271 355.166 284.823 355.123 285.377C355.076 285.929 355.053 286.436 355.053 286.874C355.053 287.886 355.235 288.807 355.601 289.636C355.874 290.373 356.262 291.017 356.764 291.569C357.264 292.121 358.017 292.399 359.021 292.399C360.571 292.399 362.647 291.823 365.247 290.671C367.846 289.521 370.378 288.256 372.84 286.874C375.759 285.215 378.815 283.42 382.008 281.487C382.099 281.487 382.145 281.532 382.145 281.625V282.177C382.145 282.453 382.075 282.752 381.94 283.075C381.802 283.398 381.459 283.696 380.913 283.974C377.356 286.367 373.98 288.485 370.788 290.327C368.051 291.892 365.223 293.342 362.305 294.678C359.386 296.012 357.015 296.681 355.191 296.681C353.001 296.681 351.427 296.08 350.47 294.884C349.512 293.688 349.033 292.03 349.033 289.935C349.033 286.805 349.944 282.937 351.769 278.334C353.594 273.751 356.011 268.871 359.021 263.738C362.032 258.581 365.383 253.448 369.078 248.361C372.771 243.249 376.534 238.668 380.366 234.571C384.196 230.474 387.845 227.182 391.312 224.649C394.778 222.118 397.741 220.851 400.205 220.851C401.937 220.851 402.804 222.095 402.804 224.579ZM397.878 227.758C397.787 226.56 397.582 225.754 397.263 225.34C396.944 224.926 396.556 224.719 396.1 224.719C394.641 224.719 392.771 225.639 390.491 227.48C388.21 229.322 385.725 231.739 383.034 234.733C380.342 237.725 377.584 241.178 374.756 245.091C371.928 249.004 369.283 253.034 366.82 257.178C364.357 261.32 362.168 265.418 360.252 269.469C358.337 273.522 356.923 277.25 356.011 280.657C357.561 279.37 359.659 277.504 362.305 275.064C364.95 272.624 367.778 269.838 370.788 266.707C373.798 263.578 376.877 260.239 380.023 256.694C383.171 253.148 386.02 249.626 388.575 246.128C391.129 242.629 393.273 239.29 395.005 236.114C396.739 232.936 397.695 230.151 397.878 227.758Z" fill="#2B2A29"/>
<path d="M408.953 283.569C408.953 283.846 408.632 284.261 407.995 284.813C405.167 286.562 401.884 287.437 398.145 287.437H396.501C394.13 290.2 391.553 292.501 388.771 294.343C385.989 296.185 383.549 297.106 381.451 297.106C378.623 297.106 377.211 295.264 377.211 291.58C377.211 289.923 377.711 287.944 378.737 285.641C379.764 283.34 381.177 281.038 382.957 278.735C382.592 277.722 382.409 276.48 382.409 275.006C382.409 273.349 382.82 271.806 383.64 270.38C384.485 268.952 385.511 267.686 386.742 266.581C387.996 265.476 389.386 264.623 390.938 264.025C392.51 263.426 394.016 263.128 395.499 263.128C397.596 263.128 399.42 263.841 400.926 265.268C402.454 266.696 403.205 269.021 403.205 272.243C403.205 274.454 402.727 276.687 401.769 278.943C400.81 281.198 399.557 283.385 398.006 285.504H399.649C400.926 285.504 402.203 285.342 403.48 285.019C404.757 284.698 405.989 284.167 407.174 283.431C407.447 283.155 407.812 283.017 408.268 283.017C408.725 283.017 408.953 283.202 408.953 283.569ZM401.154 273.21C401.154 270.909 400.423 269.251 398.964 268.237C397.505 267.225 395.864 266.718 394.039 266.718C391.94 266.718 389.935 267.316 388.019 268.515C386.103 269.712 385.145 271.277 385.145 273.21C385.145 274.223 385.282 275.144 385.555 275.973C386.832 274.592 388.247 273.302 389.799 272.105C391.348 270.909 393.036 269.849 394.859 268.929C394.952 268.929 395.089 268.882 395.269 268.791C395.453 268.698 395.681 268.653 395.955 268.653C396.228 268.653 396.365 268.882 396.365 269.342C396.365 269.619 396.045 270.034 395.408 270.586C394.769 271.138 393.971 271.783 393.013 272.519C392.054 273.258 391.006 274.154 389.867 275.213C388.725 276.271 387.655 277.446 386.65 278.735C387.655 280.302 388.954 281.636 390.55 282.742C392.146 283.846 393.901 284.628 395.818 285.088C397.368 283.246 398.645 281.314 399.649 279.287C400.651 277.261 401.154 275.236 401.154 273.21ZM393.901 287.023C392.077 286.654 390.345 286.033 388.703 285.157C387.062 284.283 385.738 283.155 384.735 281.774C383.184 284.261 382.409 287.023 382.409 290.061C382.409 291.719 383.138 292.549 384.62 292.549C385.738 292.549 387.153 292.041 388.84 291.028C390.55 290.015 392.237 288.681 393.901 287.023ZM443.842 282.188C443.842 282.464 443.774 282.764 443.636 283.086C443.501 283.409 443.157 283.707 442.61 283.985C439.054 286.378 435.679 288.496 432.485 290.338C429.749 291.903 426.921 293.353 424.003 294.689C421.084 296.023 418.712 296.692 416.889 296.692C415.428 296.692 414.472 296.3 414.016 295.517C413.559 294.735 413.33 293.929 413.33 293.101C413.33 290.982 413.991 288.956 415.315 287.023C416.638 285.088 418.096 283.34 419.694 281.774C421.289 280.208 422.749 278.874 424.071 277.768C425.394 276.663 426.055 275.881 426.055 275.42C426.055 275.052 425.781 274.821 425.235 274.73C424.686 274.73 424.139 274.683 423.592 274.592C423.136 274.499 422.589 274.43 421.949 274.385C421.311 274.339 420.628 274.223 419.899 274.039C417.801 276.249 415.657 278.367 413.467 280.393C411.278 282.419 409.18 284.03 407.174 285.226C406.809 285.411 406.488 285.504 406.216 285.504C405.85 285.504 405.67 285.273 405.67 284.813C405.67 284.536 405.805 284.261 406.078 283.985C408.086 282.88 410.16 281.405 412.304 279.563C414.448 277.722 416.477 275.742 418.393 273.625C416.843 273.164 415.428 272.519 414.152 271.691C412.874 270.863 412.236 269.712 412.236 268.237C412.236 267.041 412.669 265.728 413.535 264.302C414.403 262.874 415.52 261.54 416.889 260.296C418.256 259.054 419.716 258.016 421.266 257.189C422.818 256.36 424.276 255.945 425.645 255.945C427.468 255.945 428.381 257.049 428.381 259.26C428.381 260.826 427.925 262.575 427.013 264.51C426.101 266.443 424.87 268.33 423.318 270.172C425.052 270.448 426.579 270.793 427.903 271.207C429.225 271.622 429.886 272.337 429.886 273.348C429.886 274.178 429.749 274.937 429.476 275.628C429.201 276.319 428.655 276.894 427.832 277.355C427.195 277.722 426.352 278.345 425.303 279.218C424.254 280.093 423.25 281.106 422.293 282.256C421.335 283.409 420.513 284.674 419.83 286.056C419.145 287.437 418.803 288.818 418.803 290.2C418.803 290.752 418.986 291.259 419.35 291.719C419.716 292.18 420.172 292.41 420.718 292.41C422.27 292.41 424.344 291.834 426.944 290.683C429.544 289.532 432.076 288.267 434.537 286.885C437.457 285.226 440.512 283.431 443.706 281.498C443.795 281.498 443.842 281.543 443.842 281.636V282.188ZM425.235 261.609C425.235 259.858 424.549 258.985 423.182 258.985C422.543 258.985 421.792 259.191 420.925 259.605C420.058 260.021 419.238 260.573 418.461 261.262C417.686 261.953 417.025 262.713 416.477 263.542C415.93 264.372 415.657 265.199 415.657 266.029C415.657 267.225 416.272 268.1 417.504 268.653C418.735 269.205 420.126 269.619 421.676 269.897C422.862 268.421 423.752 266.95 424.344 265.476C424.938 264.003 425.235 262.713 425.235 261.609ZM485.3 282.188C485.3 282.464 485.231 282.764 485.093 283.086C484.957 283.409 484.615 283.707 484.068 283.985C480.51 286.378 477.135 288.496 473.944 290.338C471.207 291.903 468.379 293.353 465.46 294.689C462.542 296.023 460.169 296.692 458.345 296.692C456.885 296.692 455.927 296.3 455.471 295.517C455.016 294.735 454.788 293.929 454.788 293.101C454.788 292.64 454.833 292.226 454.925 291.857C455.016 291.489 455.108 291.121 455.198 290.752C455.289 290.384 455.381 290.061 455.471 289.786C455.471 289.877 454.993 290.246 454.034 290.889C453.078 291.534 451.89 292.202 450.478 292.893C449.063 293.584 447.559 294.206 445.962 294.757C444.367 295.311 442.93 295.587 441.652 295.587C438.916 295.587 437.547 294.435 437.547 292.132C437.547 289.188 438.689 286.241 440.968 283.294C443.249 280.347 445.962 277.653 449.11 275.213C452.257 272.772 455.563 270.793 459.029 269.274C462.496 267.754 465.369 266.995 467.65 266.995C469.017 266.995 470.113 267.316 470.933 267.962C471.754 268.607 472.164 269.574 472.164 270.863C472.164 271.691 471.868 272.519 471.275 273.348C470.682 274.178 469.997 274.937 469.222 275.628C468.447 276.319 467.718 276.894 467.035 277.355C466.349 277.815 465.871 278.044 465.598 278.044C465.049 278.044 464.775 277.722 464.775 277.078C464.775 276.801 464.866 276.571 465.05 276.387C465.142 276.296 465.185 276.202 465.185 276.111C466.827 274.545 467.65 273.21 467.65 272.105C467.65 270.724 466.919 270.034 465.46 270.034C464 270.034 462.085 270.655 459.712 271.899C457.342 273.142 455.016 274.683 452.735 276.525C450.454 278.367 448.493 280.393 446.852 282.603C445.21 284.813 444.389 286.839 444.389 288.681C444.389 290.154 445.301 290.889 447.125 290.889C448.858 290.889 450.615 290.384 452.393 289.37C454.171 288.358 455.814 287.253 457.32 286.056C458.824 284.859 460.125 283.754 461.218 282.742C462.312 281.727 462.998 281.223 463.271 281.223C464.183 281.314 464.639 281.773 464.639 282.603C464.639 282.971 464.41 283.478 463.954 284.122C463.498 284.765 463.02 285.457 462.517 286.193C462.018 286.93 461.537 287.712 461.081 288.542C460.625 289.37 460.398 290.2 460.398 291.028C460.398 291.949 460.99 292.41 462.177 292.41C463.727 292.41 465.803 291.834 468.402 290.683C471.001 289.532 473.532 288.267 475.996 286.885C478.915 285.226 481.97 283.431 485.163 281.498C485.254 281.498 485.3 281.543 485.3 281.636V282.188Z" fill="#2B2A29"/>
<path d="M78.0653 172.17L77 171.228V165.002L78.0653 164.019C83.8808 163.939 87.648 163.651 89.3282 163.119C91.0068 162.628 92.5225 161.563 93.8331 160.007C95.1437 158.451 97.8053 153.331 101.819 144.731L114.433 117.373L147.073 43.4522C153.216 28.9547 159.317 14.4975 165.42 0H173.201L224.435 120.487L231.274 136.54C233.28 141.127 235.574 146.082 238.195 151.448C240.776 156.771 242.577 159.965 243.56 160.907C244.583 161.85 245.813 162.628 247.287 163.119C248.761 163.651 252.079 163.939 257.197 164.019L258.14 165.002V171.228L257.197 172.17C248.72 171.473 241.062 171.105 234.263 171.105C220.994 171.515 207.726 171.883 194.457 172.17L193.474 171.228V165.002L194.457 164.019C203.425 163.856 208.995 163.487 211.248 162.874C213.5 162.301 214.605 160.908 214.605 158.737C214.605 156.976 214.032 154.682 212.927 151.775L198.184 115.204H128.684L115.62 145.918C113.286 151.448 112.14 155.46 112.14 158.041C112.14 160.047 113.203 161.523 115.374 162.464C117.545 163.447 122.993 163.939 131.715 164.019L132.78 165.002V171.228L131.797 172.17C121.477 171.556 112.467 171.228 104.686 171.228C95.8797 171.228 87.0347 171.556 78.0653 172.17ZM132.78 104.882H193.474L163.372 32.5169L132.78 104.882ZM335.897 90.3439V114.711L336.02 138.096C336.101 146.82 336.348 152.593 336.756 155.46C337.166 158.286 337.739 160.13 338.477 160.948C339.255 161.808 340.73 162.546 342.859 163.119C345.03 163.734 350.353 164.184 358.832 164.512L359.773 165.207V171.228L358.832 172.17C338.517 171.556 327.051 171.228 324.389 171.228C321.85 171.228 310.382 171.556 290.069 172.17L289.127 171.228V165.207L290.069 164.512C297.605 164.184 302.561 163.774 305.017 163.324C307.475 162.833 309.112 162.178 309.932 161.398C310.792 160.58 311.448 158.982 311.98 156.608C312.511 154.191 312.799 148.744 312.881 140.267L313.004 114.711V59.178L312.758 35.7531C312.676 26.6611 312.471 20.7632 312.103 18.142C311.733 15.4804 311.16 13.7195 310.423 12.8592C309.645 11.9586 308.211 11.2613 306.04 10.6883C303.871 10.1153 298.546 9.7053 290.069 9.37765L289.127 8.51734V2.53884L290.069 1.67853C323.979 2.17082 343.801 2.41621 349.452 2.41621C368.497 2.41621 388.032 2.17082 408.017 1.67853L409 2.53884C407.689 6.51105 406.869 11.0579 406.46 16.1358C406.051 21.2136 405.641 28.422 405.15 37.677L404.168 38.66H398.555L397.697 37.677C397.532 37.1444 397.164 34.0325 396.631 28.4624C396.221 24.0398 395.566 20.0256 394.706 16.3407C386.393 13.5144 374.926 12.1216 360.265 12.1216C353.712 12.1216 346.013 12.6138 337.248 13.5548C336.348 19.8206 335.897 35.0154 335.897 59.178V79.9412C346.053 80.0639 352.974 80.1463 356.661 80.1463C363.459 80.1463 369.315 79.9009 374.188 79.3683C379.062 78.8776 381.969 78.345 382.952 77.8947C383.895 77.4024 384.632 76.5017 385.163 75.1911C385.696 73.8805 386.188 70.972 386.679 66.4671L387.376 59.9964L388.235 59.0553H394.338L395.321 60.1206L394.461 86.412C394.461 89.4432 394.583 93.8254 394.83 99.5989C395.158 106.152 395.321 111.23 395.321 114.834L394.215 115.777H388.235L387.376 114.834L386.884 104.636C386.679 100.624 386.271 97.7153 385.696 95.8721C385.164 94.0304 384.223 92.8424 382.952 92.2694C381.684 91.7368 378.817 91.2042 374.435 90.712C370.011 90.2213 363.254 90.0162 354.162 90.0162C346.053 90.0162 339.992 90.1389 335.897 90.3439Z" fill="#2B2A29"/>
<path fill-rule="evenodd" clip-rule="evenodd" d="M265.989 81.1094C269.663 81.1094 272.641 84.0873 272.641 87.7625C272.641 91.4361 269.663 94.4141 265.989 94.4141C262.316 94.4141 259.336 91.4361 259.336 87.7625C259.336 84.0873 262.316 81.1094 265.989 81.1094Z" fill="#2B2A29" stroke="#2B2A29" stroke-width="3.22813" stroke-miterlimit="22.9256"/>
</svg>
