<svg width="952" height="595" viewBox="0 0 952 595" fill="none" xmlns="http://www.w3.org/2000/svg">
<path d="M197.002 391.567C197.002 395.178 196.108 400.054 194.318 406.242C192.53 412.385 190.067 419.382 186.937 427.151C183.803 434.964 180.181 443.499 176.068 452.709C171.953 461.968 167.612 471.404 163.049 481.07C158.489 490.73 153.882 500.486 149.226 510.329C144.576 520.173 140.011 529.703 135.539 538.913C141.265 538.554 147.125 537.74 153.12 536.478C159.113 535.212 164.168 533.587 168.283 531.599C169.713 530.876 170.565 530.064 170.832 529.16C171.101 528.258 171.415 527.806 171.772 527.806C172.848 527.806 173.695 528.167 174.321 528.891C174.947 529.612 175.263 530.336 175.263 531.059C175.263 532.866 173.966 534.446 171.37 535.798C168.776 537.154 165.465 538.373 161.44 539.458C157.413 540.541 152.896 541.443 147.886 542.167C142.874 542.888 138.045 543.43 133.39 543.792C130.707 549.573 128.113 555.126 125.609 560.455C123.103 565.786 120.866 570.796 118.898 575.494C118.181 576.938 117.108 577.66 115.678 577.66C112.817 577.66 111.16 576.441 110.711 574.002C110.266 571.562 110.042 569.17 110.042 566.824C109.682 563.57 109.19 560.005 108.564 556.121C107.938 552.236 107.176 548.129 106.281 543.792C98.5893 543.25 91.4778 542.167 84.9471 540.541C78.4163 538.913 72.2878 536.835 66.5615 534.31V534.579C60.1213 542.709 53.5 550.385 46.7004 557.611C39.9007 564.834 33.727 571.248 28.1792 576.846C21.7389 583.35 15.3867 589.4 9.1249 595C6.26175 595 4.24824 594.548 3.0868 593.646C1.92298 592.742 1.16141 591.84 0.804413 590.935C0.266533 590.214 0 589.4 0 588.496C0 588.139 0.17612 587.777 0.535501 587.413C10.3768 580.009 20.0848 571.426 29.6548 561.676C39.2271 551.92 48.8448 541.536 58.51 530.514C46.8789 524.193 38.1562 516.653 32.3395 507.89C26.5251 499.129 23.6168 491.049 23.6168 483.64C23.6168 477.321 25.7635 471.99 30.0594 467.658C34.3529 463.322 40.9741 461.154 49.9206 461.154C59.0455 461.154 67.0541 463.862 73.9419 469.281C80.8296 474.701 86.6893 481.477 91.5207 489.604C102.214 476.057 112.41 462.87 122.03 449.999C131.648 437.13 140.639 425.749 148.914 415.905C157.235 406.016 164.749 398.024 171.551 391.974C178.348 385.874 184.029 382.852 188.682 382.852C192.214 382.852 194.453 383.799 195.482 385.696C196.51 387.593 197.002 389.577 197.002 391.567ZM186.802 395.042C186.802 393.781 186.578 392.693 186.133 391.791C185.683 390.889 184.833 390.437 183.581 390.437C180.899 390.437 176.513 393.645 170.43 400.054C164.346 406.468 157.278 414.777 149.226 424.982C141.175 435.188 132.452 446.567 123.06 459.124C113.664 471.676 104.406 484.095 95.2787 496.375C98.8559 503.239 101.855 510.329 104.27 517.645C106.688 524.959 108.697 531.692 110.311 537.83C112.817 538.192 115.318 538.463 117.824 538.642C120.328 538.825 122.834 538.913 125.338 538.913C128.739 531.871 132.585 523.698 136.881 514.397C141.175 505.093 145.604 495.473 150.164 485.539C154.729 475.603 159.201 465.669 163.585 455.734C167.971 445.798 171.862 436.678 175.263 428.367C178.66 420.061 181.435 412.925 183.581 406.966C185.728 401.006 186.802 397.032 186.802 395.042ZM104.673 537.019C103.242 531.059 101.54 524.959 99.5746 518.728C97.6063 512.498 95.1906 506.49 92.3251 500.712C88.9288 505.407 85.5729 509.88 82.2624 514.126C78.9518 518.367 75.6865 522.567 72.4663 526.723C77.1169 529.069 82.1291 531.147 87.496 532.954C92.8653 534.76 98.5892 536.117 104.673 537.019ZM88.5694 493.396C83.9188 485.268 78.5043 478.63 72.3306 473.482C66.1593 468.334 59.0455 465.759 50.9939 465.759C44.1942 465.759 39.2748 467.161 36.2331 469.96C33.1891 472.759 31.6683 476.236 31.6683 480.389C31.6683 486.532 34.5338 493.488 40.2577 501.254C45.984 509.02 54.2141 516.068 64.9503 522.387C69.0677 517.691 73.047 512.904 76.8955 508.025C80.7416 503.151 84.6328 498.275 88.5694 493.396ZM118.898 544.061H111.922C112.636 546.591 113.129 548.895 113.395 550.973C113.664 553.05 113.978 554.812 114.333 556.256C114.692 558.063 114.961 559.686 115.142 561.133C115.856 559.869 116.573 558.334 117.287 556.528C118.003 555.083 118.855 553.276 119.836 551.108C120.821 548.94 121.939 546.591 123.194 544.061H118.898ZM829.074 386.914C829.074 387.095 828.493 387.728 827.332 388.811C826.166 389.896 824.467 391.07 822.232 392.331C819.995 393.597 817.131 394.683 813.642 395.587C810.151 396.489 805.993 396.939 801.161 396.939C784.34 396.939 770.117 396.939 758.486 396.939C746.855 396.939 737.237 396.939 729.635 396.939C722.029 396.939 715.991 396.896 711.516 396.803C707.042 396.713 703.689 396.668 701.454 396.668C699.217 396.668 697.65 396.668 696.756 396.668C695.861 396.668 695.056 396.668 694.34 396.668C681.097 396.668 668.303 397.934 655.96 400.461C643.612 402.991 632.117 406.333 621.469 410.486C610.823 414.641 601.163 419.382 592.483 424.711C583.805 430.04 576.38 435.414 570.208 440.833C564.032 446.253 559.246 451.536 555.845 456.684C552.449 461.832 550.75 466.392 550.75 470.367C550.75 473.98 552.358 476.912 555.578 479.173C558.799 481.429 563.811 482.557 570.611 482.557C575.977 482.557 582.327 481.519 589.665 479.442C597 477.366 604.652 474.387 612.613 470.502C620.574 466.618 628.492 461.92 636.368 456.413C644.238 450.903 651.307 444.808 657.571 438.122L659.18 436.497C660.075 435.592 660.879 435.143 661.596 435.143C661.953 435.143 662.131 435.414 662.131 435.954C662.131 436.497 662.041 436.949 661.862 437.311C659.537 442.73 655.241 448.69 648.979 455.192C642.718 461.696 635.292 467.701 626.703 473.211C618.116 478.718 608.81 483.371 598.79 487.165C588.77 490.956 578.838 492.855 568.997 492.855C560.945 492.855 554.95 491.185 551.016 487.841C547.079 484.499 545.109 480.12 545.109 474.701C545.109 467.116 548.736 458.264 555.981 448.149C563.228 438.032 573.605 428.414 587.116 419.292C600.622 410.172 617.13 402.449 636.634 396.127C656.136 389.806 678.146 386.643 702.66 386.643C718.228 386.643 732.946 386.643 746.812 386.643C760.678 386.643 772.98 386.598 783.716 386.507C794.45 386.419 803.175 386.329 809.884 386.236C816.596 386.148 820.663 386.012 822.098 385.831C822.274 385.65 822.634 385.56 823.169 385.56H825.854C826.749 385.56 827.508 385.65 828.136 385.831C828.762 386.012 829.074 386.372 829.074 386.914ZM716.617 516.425C716.617 516.97 716.257 517.691 715.543 518.593C714.827 519.497 713.932 520.356 712.861 521.168C711.785 521.979 710.579 522.66 709.234 523.2C707.894 523.743 706.597 524.012 705.345 524.012C703.377 524.012 699.171 523.922 692.729 523.743C686.288 523.562 678.594 523.472 669.647 523.472H653.006C647.458 534.31 642.406 544.287 637.841 553.412C633.281 562.532 629.568 569.803 626.703 575.223C626.524 575.765 626.167 576.396 625.632 577.117C624.556 578.562 623.304 579.557 621.871 580.097C620.441 580.82 619.053 581.411 617.713 581.86C616.369 582.313 615.252 582.536 614.357 582.536C612.746 582.536 611.942 582.087 611.942 581.182C611.942 581.001 612.703 579.33 614.224 576.17C615.745 573.007 617.846 568.854 620.531 563.706C623.213 558.56 626.345 552.553 629.923 545.689C633.502 538.825 637.26 531.509 641.199 523.743C632.253 524.105 623.392 524.509 614.626 524.959C605.858 525.414 597.719 526.09 590.203 526.992C588.77 526.992 588.054 526.63 588.054 525.911C588.054 525.55 588.323 525.052 588.858 524.419C589.398 523.786 590.024 523.11 590.738 522.387L593.154 519.949C593.69 519.768 594.318 519.497 595.034 519.135C596.105 518.776 598.164 518.414 601.206 518.053C602.636 517.874 607.56 517.512 615.966 516.97C624.377 516.425 634.219 515.975 645.49 515.613C651.576 503.872 657.747 492.044 664.011 480.12C670.273 468.198 675.954 457.36 681.055 447.604C686.153 437.854 690.268 429.859 693.402 423.628C696.532 417.397 698.01 414.191 697.829 414.008C698.186 413.468 698.636 412.925 699.171 412.385C699.531 412.023 700.066 411.616 700.78 411.164C701.497 410.714 702.301 410.307 703.196 409.946C705.166 409.044 706.775 408.501 708.027 408.318C708.746 408.139 709.37 407.956 709.907 407.777C710.262 407.777 710.621 407.956 710.981 408.318C711.157 408.501 711.247 408.679 711.247 408.86C711.247 409.222 711.071 409.762 710.712 410.486C710.352 411.028 708.52 414.596 705.209 421.189C701.899 427.781 697.693 436.047 692.593 445.981C687.495 455.915 681.859 466.932 675.685 479.037C669.514 491.139 663.385 503.151 657.3 515.073C662.848 514.889 668.303 514.754 673.672 514.666C679.039 514.575 684.139 514.53 688.971 514.53H699.171C706.149 514.53 710.802 514.666 713.128 514.937C715.453 515.208 716.617 515.706 716.617 516.425ZM259.001 439.205C259.001 443.363 257.212 448.735 253.632 455.418C250.053 462.103 245.4 469.236 239.676 476.912C233.95 484.592 227.597 492.494 220.619 500.712C213.641 508.93 206.663 516.608 199.685 523.833C192.706 531.059 186.221 537.426 180.226 543.023C174.231 548.626 169.447 552.689 165.867 555.219C165.686 556.299 165.553 557.382 165.465 558.467C165.375 559.55 165.332 560.545 165.332 561.404C165.332 563.389 165.686 565.196 166.403 566.824C166.938 568.268 167.7 569.532 168.685 570.615C169.668 571.698 171.144 572.243 173.112 572.243C176.154 572.243 180.226 571.112 185.326 568.854C190.424 566.597 195.391 564.115 200.22 561.404C205.946 558.151 211.942 554.628 218.203 550.837C218.382 550.837 218.472 550.925 218.472 551.108V552.191C218.472 552.732 218.337 553.319 218.07 553.952C217.801 554.586 217.128 555.171 216.057 555.716C209.079 560.409 202.457 564.565 196.196 568.178C190.826 571.248 185.278 574.092 179.555 576.712C173.828 579.33 169.178 580.642 165.598 580.642C161.302 580.642 158.218 579.464 156.338 577.117C154.46 574.77 153.52 571.519 153.52 567.409C153.52 561.269 155.309 553.681 158.887 544.651C162.466 535.662 167.207 526.09 173.112 516.02C179.019 505.905 185.593 495.835 192.842 485.856C200.087 475.829 207.467 466.842 214.983 458.805C222.497 450.767 229.654 444.31 236.456 439.341C243.255 434.376 249.07 431.892 253.901 431.892C257.297 431.892 259.001 434.331 259.001 439.205ZM249.336 445.441C249.16 443.089 248.758 441.509 248.13 440.698C247.504 439.886 246.742 439.479 245.847 439.479C242.986 439.479 239.316 441.283 234.844 444.896C230.37 448.509 225.496 453.25 220.217 459.124C214.936 464.993 209.526 471.766 203.981 479.442C198.43 487.117 193.244 495.024 188.411 503.151C183.579 511.277 179.288 519.316 175.528 527.263C171.772 535.212 168.997 542.526 167.207 549.209C170.249 546.684 174.364 543.023 179.555 538.237C184.743 533.451 190.291 527.987 196.196 521.844C202.1 515.706 208.138 509.156 214.31 502.202C220.486 495.247 226.074 488.338 231.089 481.477C236.096 474.613 240.302 468.063 243.7 461.832C247.101 455.599 248.979 450.134 249.336 445.441ZM262.222 497.458C262.222 500.35 260.967 503.196 258.464 505.995C255.957 508.794 253.182 510.194 250.143 510.194C248.71 510.194 247.727 509.696 247.192 508.706C246.652 507.711 246.385 506.674 246.385 505.588C246.385 503.239 246.878 501.297 247.863 499.762C248.844 498.227 250.01 497.008 251.35 496.106C252.694 495.202 254.034 494.569 255.379 494.207C256.719 493.85 257.657 493.667 258.197 493.667C259.804 493.667 260.879 494.072 261.417 494.888C261.953 495.7 262.222 496.556 262.222 497.458ZM267.053 552.191C267.053 552.732 266.917 553.319 266.651 553.952C266.382 554.586 265.708 555.171 264.637 555.716C257.657 560.409 251.038 564.565 244.776 568.178C239.407 571.248 233.859 574.092 228.135 576.712C222.409 579.33 217.801 580.642 214.267 580.642C211.492 580.642 209.659 579.873 208.764 578.338C207.917 576.803 207.467 575.223 207.467 573.597C207.467 571.065 208.229 567.997 209.707 564.384C211.18 560.771 213.103 556.977 215.476 553.005C217.846 549.031 220.529 544.966 223.573 540.81C226.614 536.657 229.654 532.866 232.695 529.431L233.771 528.348C234.485 527.625 235.292 527.263 236.187 527.263C237.62 527.263 238.869 527.625 239.945 528.348C240.48 528.708 240.93 529.16 241.285 529.703C241.285 530.426 240.93 531.147 240.211 531.871C238.6 533.677 236.544 536.343 234.04 539.863C231.534 543.385 229.073 547.041 226.657 550.837C224.242 554.628 222.14 558.198 220.353 561.54C218.563 564.881 217.668 567.364 217.668 568.989C217.668 569.891 217.889 570.479 218.337 570.751C218.784 571.022 219.277 571.338 219.815 571.698C220.529 572.06 221.157 572.243 221.693 572.243C224.734 572.243 228.806 571.112 233.907 568.854C239.005 566.597 243.969 564.115 248.801 561.404C254.527 558.151 260.522 554.628 266.784 550.837C266.963 550.837 267.053 550.925 267.053 551.108V552.191ZM360.454 434.871C360.454 438.529 358.976 442.909 356.025 448.059C353.074 453.25 349.273 458.805 344.617 464.812C339.967 470.774 334.776 476.912 329.05 483.283C323.326 489.604 317.599 495.699 311.873 501.48C306.147 507.307 300.735 512.59 295.634 517.377C290.536 522.163 286.376 525.999 283.156 528.891C281.904 531.059 280.65 533.27 279.398 535.526C278.146 537.787 276.894 540.091 275.64 542.438C279.22 538.825 283.023 535.258 287.047 531.735C291.074 528.213 295.232 525.007 299.528 522.115C303.822 519.226 308.208 516.922 312.68 515.208C317.152 513.492 321.624 512.633 326.099 512.633C330.216 512.633 333.303 513.357 335.359 514.801C337.418 516.246 338.446 518.231 338.446 520.761C338.446 523.288 337.327 526.137 335.093 529.296C332.853 532.456 329.676 535.393 325.561 538.102C321.448 540.81 316.393 543.071 310.4 544.878C304.405 546.684 297.65 547.586 290.134 547.586C288.166 550.52 287.181 553.774 287.181 557.43C287.181 563.299 288.345 567.319 290.67 569.487C292.997 571.698 295.77 572.783 298.993 572.783C302.927 572.783 307.132 571.791 311.604 569.803C316.079 567.816 319.658 566.1 322.34 564.655C322.7 564.294 322.969 564.115 323.145 564.115C326.011 562.666 328.783 561.178 331.465 559.643C334.15 558.106 336.478 556.706 338.446 555.442C340.771 553.998 343.008 552.553 345.155 551.108C345.336 551.108 345.422 551.199 345.422 551.377V552.46C345.422 553.005 345.288 553.591 345.02 554.224C344.753 554.857 344.082 555.442 343.008 555.985C341.397 557.068 339.607 558.241 337.642 559.507C336.03 560.59 334.107 561.811 331.872 563.163C329.633 564.52 327.26 565.922 324.759 567.364C322.609 568.63 320.151 570.027 317.376 571.562C314.605 573.054 311.695 574.499 308.653 575.808C305.611 577.117 302.567 578.202 299.528 579.059C296.487 579.918 293.626 580.368 290.941 580.368C287.005 580.368 283.782 579.107 281.276 576.577C278.77 574.049 277.52 569.351 277.52 562.487C277.52 560.502 277.654 558.377 277.922 556.121C278.191 553.862 278.727 551.784 279.531 549.887C280.338 547.993 281.412 546.365 282.754 545.013C284.094 543.657 285.75 542.978 287.716 542.978C294.518 542.978 300.378 542.39 305.3 541.217C310.219 540.044 314.289 538.554 317.509 536.747C320.729 534.941 323.102 533.044 324.623 531.059C326.144 529.07 326.905 527.175 326.905 525.369C326.905 521.394 324.04 519.407 318.318 519.407C317.243 519.407 315.408 519.633 312.816 520.085C310.219 520.535 306.909 521.891 302.884 524.148C298.855 526.409 294.071 529.929 288.525 534.715C282.975 539.501 276.535 546.139 269.2 554.628C266.872 558.965 264.592 563.299 262.355 567.635C260.12 571.969 257.838 576.484 255.512 581.182C255.153 581.725 254.796 582.175 254.437 582.536C253.723 583.26 252.828 583.622 251.752 583.622C250.5 583.622 249.293 583.305 248.13 582.672C246.968 582.039 246.385 581.092 246.385 579.828C246.385 578.745 246.742 577.479 247.461 576.034C248.175 574.589 249.786 571.61 252.29 567.047C254.796 562.532 257.478 557.744 260.341 552.689C263.564 546.727 267.229 540.36 271.344 533.677C275.464 526.452 279.936 518.776 284.765 510.601C289.596 502.473 294.564 494.526 299.664 486.713C304.762 478.944 309.907 471.492 315.093 464.314C320.284 457.182 325.251 450.903 329.992 445.484C334.733 440.022 339.162 435.728 343.277 432.57C347.392 429.409 350.972 427.827 354.014 427.827C355.263 427.827 356.339 428.188 357.234 428.912C358.129 429.454 358.89 430.173 359.516 431.078C360.14 431.98 360.454 433.246 360.454 434.871ZM351.598 438.122C351.598 436.316 351.148 435.414 350.253 435.414C347.571 435.414 344.172 437.399 340.055 441.374C335.94 445.348 331.289 450.946 326.099 458.172C320.91 465.397 315.141 474.115 308.786 484.321C302.434 494.526 295.77 505.862 288.792 518.324C292.371 514.889 296.396 511.005 300.87 506.674C305.342 502.337 309.907 497.732 314.558 492.855C319.211 487.976 323.773 482.964 328.245 477.816C332.72 472.671 336.656 467.701 340.055 462.915C343.456 458.129 346.229 453.569 348.378 449.232C350.522 444.896 351.598 441.195 351.598 438.122ZM528.473 585.245C528.473 586.511 527.666 587.506 526.057 588.227C525.341 588.589 524.536 588.77 523.641 588.77C517.736 587.868 512.053 585.157 506.598 580.642C501.141 576.127 496.083 571.065 491.433 565.467C481.232 573.054 470.051 579.107 457.884 583.622C445.718 588.139 433.996 590.395 422.722 590.395C408.944 590.395 397.806 586.918 389.309 579.961C380.808 573.007 376.559 563.027 376.559 550.023C376.559 539.908 378.839 530.562 383.404 521.98C387.964 513.402 393.917 505.453 401.252 498.139C408.589 490.823 416.774 483.959 425.809 477.545C434.846 471.135 443.837 465.035 452.784 459.259C453.143 453.478 453.769 448.237 454.664 443.542C455.559 438.846 456.454 434.871 457.346 431.623C458.42 427.826 459.583 424.397 460.835 421.324C464.236 414.279 467.992 408.772 472.107 404.798C476.222 400.823 480.204 397.843 484.05 395.856C487.898 393.869 491.342 392.65 494.384 392.198C497.428 391.746 499.575 391.52 500.829 391.52C501.184 391.52 501.943 391.567 503.107 391.655C504.27 391.746 505.57 392.198 507 393.012C508.431 393.823 509.685 395.132 510.756 396.939C511.832 398.745 512.367 401.275 512.367 404.526C512.367 409.946 510.937 415.182 508.074 420.241C505.21 425.299 501.364 430.266 496.533 435.143C491.699 440.022 486.154 444.896 479.892 449.773C473.63 454.652 467.099 459.528 460.3 464.407C460.476 469.643 461.195 475.153 462.447 480.934C463.698 486.713 465.219 492.946 467.009 499.626C467.009 499.81 467.099 500.169 467.276 500.712C467.635 501.795 467.902 502.79 468.082 503.694C474.523 499.898 481.189 496.83 488.077 494.479C494.967 492.132 501.274 490.956 507 490.956C507.536 490.956 508.923 491.049 511.158 491.227C513.398 491.411 515.766 492.087 518.272 493.26C520.776 494.436 523.013 496.285 524.981 498.815C526.952 501.345 527.932 504.867 527.932 509.382C527.932 518.414 525.25 527.22 519.881 535.798C514.516 544.38 507.536 552.282 498.949 559.507C502.526 563.66 506.374 567.452 510.489 570.886C514.604 574.321 518.986 577.208 523.641 579.557C524.536 579.918 525.341 580.459 526.057 581.182C527.666 582.448 528.473 583.802 528.473 585.245ZM505.389 406.149C505.389 404.165 505.03 402.629 504.316 401.547C503.599 400.461 502.795 399.557 501.9 398.836C500.829 398.112 499.575 397.662 498.144 397.481C497.069 397.481 495.502 397.662 493.446 398.024C491.39 398.383 489.107 399.2 486.601 400.461C484.098 401.725 481.456 403.624 478.683 406.149C475.91 408.679 473.18 412.114 470.496 416.448C468.887 419.518 467.366 422.952 465.936 426.744C464.681 429.995 463.563 433.969 462.582 438.665C461.597 443.363 460.926 448.599 460.566 454.38C466.65 450.227 472.419 446.207 477.878 442.326C483.336 438.439 488.077 434.51 492.101 430.535C496.131 426.565 499.351 422.59 501.767 418.616C504.182 414.641 505.389 410.486 505.389 406.149ZM518.272 514.801C518.272 514.44 518.182 513.357 518.005 511.55C517.825 509.744 517.153 507.89 515.989 505.995C514.828 504.099 513.038 502.385 510.623 500.847C508.207 499.312 504.763 498.544 500.289 498.544C496.89 498.544 492.461 499.448 487.003 501.254C481.546 503.061 475.956 505.769 470.229 509.382C472.376 515.163 475.644 522.298 480.025 530.788C484.409 539.275 489.824 547.674 496.264 555.985C502.526 550.566 507.762 544.423 511.967 537.561C516.168 530.697 518.272 523.11 518.272 514.801ZM488.479 561.676C485.797 558.063 483.381 554.586 481.232 551.244C479.088 547.9 477.207 544.878 475.596 542.167C473.63 538.913 472.017 535.933 470.767 533.223C468.796 530.155 467.188 527.127 465.936 524.148C464.681 521.168 463.52 518.143 462.447 515.073C458.329 518.686 454.664 522.703 451.444 527.127C448.219 531.552 446.074 536.479 444.999 541.898C444.823 542.438 444.554 543.071 444.194 543.792C443.659 545.056 442.674 545.689 441.243 545.689C440.348 545.689 439.499 545.282 438.694 544.468C437.89 543.657 437.483 541.986 437.483 539.458C437.483 534.401 439.632 529.205 443.928 523.876C448.219 518.55 453.679 513.538 460.3 508.842C457.794 501.433 456.004 494.479 454.93 487.976C453.855 481.477 453.143 475.334 452.784 469.553C444.908 475.334 437.128 481.248 429.431 487.3C421.739 493.353 414.896 499.762 408.901 506.538C402.906 513.309 398.075 520.492 394.409 528.079C390.739 535.662 388.907 543.792 388.907 552.46C388.907 562.037 391.725 569.756 397.361 575.63C402.997 581.499 412.614 584.433 426.211 584.433C429.431 584.433 433.503 583.936 438.425 582.943C443.345 581.951 448.621 580.506 454.262 578.609C459.898 576.712 465.667 574.363 471.571 571.562C477.476 568.766 483.112 565.467 488.479 561.676ZM790.156 439.205C790.156 443.363 788.369 448.735 784.789 455.418C781.21 462.103 776.557 469.236 770.833 476.912C765.107 484.592 758.752 492.494 751.776 500.712C744.796 508.93 737.82 516.608 730.84 523.833C723.864 531.059 717.376 537.426 711.383 543.023C705.388 548.626 700.602 552.689 697.024 555.219C696.844 556.299 696.708 557.382 696.622 558.467C696.532 559.55 696.487 560.545 696.487 561.404C696.487 563.389 696.844 565.196 697.56 566.824C698.096 568.268 698.857 569.532 699.842 570.615C700.823 571.698 702.301 572.243 704.269 572.243C707.311 572.243 711.383 571.112 716.483 568.854C721.581 566.597 726.548 564.115 731.377 561.404C737.104 558.151 743.099 554.628 749.361 550.837C749.539 550.837 749.63 550.925 749.63 551.108V552.191C749.63 552.732 749.494 553.319 749.227 553.952C748.959 554.586 748.285 555.171 747.214 555.716C740.236 560.409 733.615 564.565 727.353 568.178C721.984 571.248 716.436 574.092 710.712 576.712C704.986 579.33 700.335 580.642 696.756 580.642C692.46 580.642 689.373 579.464 687.495 577.117C685.617 574.77 684.677 571.519 684.677 567.409C684.677 561.269 686.464 553.681 690.044 544.651C693.623 535.662 698.364 526.09 704.269 516.02C710.176 505.905 716.75 495.835 723.997 485.856C731.242 475.829 738.625 466.842 746.141 458.805C753.654 450.767 760.811 444.31 767.613 439.341C774.413 434.376 780.225 431.892 785.058 431.892C788.455 431.892 790.156 434.331 790.156 439.205ZM780.494 445.441C780.315 443.089 779.913 441.509 779.287 440.698C778.661 439.886 777.899 439.479 777.004 439.479C774.144 439.479 770.474 441.283 766.002 444.896C761.527 448.509 756.653 453.25 751.374 459.124C746.093 464.993 740.683 471.766 735.135 479.442C729.588 487.117 724.399 495.024 719.568 503.151C714.736 511.277 710.443 519.316 706.685 527.263C702.927 535.212 700.154 542.526 698.364 549.209C701.406 546.684 705.521 543.023 710.712 538.237C715.9 533.451 721.448 527.987 727.353 521.844C733.258 515.706 739.296 509.156 745.467 502.202C751.643 495.247 757.232 488.338 762.244 481.477C767.254 474.613 771.459 468.063 774.858 461.832C778.259 455.599 780.134 450.134 780.494 445.441Z" fill="#2B2A29"/>
<path d="M802.219 554.915C802.219 555.457 801.591 556.271 800.341 557.354C794.793 560.786 788.353 562.502 781.018 562.502H777.793C773.142 567.921 768.087 572.436 762.63 576.049C757.173 579.662 752.386 581.468 748.271 581.468C742.723 581.468 739.953 577.855 739.953 570.63C739.953 567.379 740.934 563.497 742.947 558.98C744.961 554.465 747.733 549.95 751.225 545.433C750.509 543.445 750.149 541.008 750.149 538.116C750.149 534.865 750.956 531.84 752.565 529.042C754.221 526.24 756.235 523.758 758.651 521.59C761.109 519.422 763.837 517.748 766.881 516.575C769.965 515.402 772.919 514.816 775.827 514.816C779.942 514.816 783.519 516.216 786.473 519.015C789.472 521.816 790.945 526.376 790.945 532.697C790.945 537.034 790.007 541.415 788.127 545.84C786.247 550.264 783.788 554.553 780.746 558.711H783.969C786.473 558.711 788.979 558.392 791.483 557.759C793.989 557.128 796.405 556.088 798.73 554.643C799.265 554.103 799.982 553.832 800.877 553.832C801.771 553.832 802.219 554.193 802.219 554.915ZM786.92 534.594C786.92 530.079 785.487 526.828 782.624 524.838C779.763 522.853 776.543 521.859 772.964 521.859C768.846 521.859 764.912 523.032 761.154 525.383C757.396 527.732 755.516 530.803 755.516 534.594C755.516 536.581 755.785 538.388 756.321 540.013C758.827 537.305 761.602 534.775 764.646 532.426C767.685 530.079 770.996 528.001 774.573 526.195C774.754 526.195 775.023 526.105 775.377 525.926C775.737 525.743 776.184 525.655 776.722 525.655C777.257 525.655 777.526 526.105 777.526 527.007C777.526 527.549 776.898 528.363 775.649 529.446C774.397 530.529 772.831 531.795 770.95 533.237C769.07 534.687 767.014 536.446 764.779 538.523C762.539 540.599 760.44 542.903 758.47 545.433C760.44 548.505 762.989 551.123 766.119 553.291C769.251 555.457 772.693 556.992 776.453 557.894C779.495 554.281 781.998 550.49 783.969 546.515C785.935 542.541 786.92 538.569 786.92 534.594ZM772.693 561.69C769.115 560.967 765.717 559.748 762.497 558.03C759.277 556.314 756.68 554.103 754.712 551.392C751.67 556.271 750.149 561.69 750.149 567.65C750.149 570.901 751.58 572.529 754.488 572.529C756.68 572.529 759.455 571.534 762.766 569.547C766.119 567.559 769.43 564.941 772.693 561.69ZM870.658 552.206C870.658 552.746 870.525 553.334 870.256 553.967C869.989 554.6 869.316 555.186 868.243 555.731C861.267 560.424 854.646 564.58 848.381 568.193C843.014 571.263 837.467 574.107 831.743 576.727C826.017 579.345 821.364 580.657 817.786 580.657C814.921 580.657 813.046 579.888 812.151 578.353C811.256 576.818 810.806 575.237 810.806 573.612C810.806 569.456 812.103 565.482 814.7 561.69C817.294 557.894 820.155 554.465 823.289 551.392C826.419 548.322 829.282 545.704 831.876 543.536C834.47 541.368 835.767 539.832 835.767 538.928C835.767 538.207 835.23 537.755 834.159 537.576C833.083 537.576 832.009 537.483 830.936 537.305C830.041 537.122 828.968 536.986 827.713 536.898C826.462 536.807 825.122 536.581 823.691 536.22C819.576 540.556 815.371 544.709 811.075 548.684C806.781 552.658 802.664 555.819 798.73 558.166C798.014 558.527 797.385 558.711 796.85 558.711C796.133 558.711 795.779 558.256 795.779 557.354C795.779 556.811 796.045 556.271 796.581 555.731C800.52 553.563 804.587 550.669 808.792 547.056C812.998 543.445 816.98 539.561 820.738 535.408C817.696 534.504 814.921 533.237 812.417 531.614C809.911 529.989 808.659 527.732 808.659 524.838C808.659 522.492 809.509 519.917 811.208 517.12C812.91 514.319 815.102 511.701 817.786 509.261C820.469 506.824 823.332 504.789 826.374 503.166C829.418 501.541 832.278 500.727 834.963 500.727C838.54 500.727 840.33 502.892 840.33 507.229C840.33 510.301 839.435 513.731 837.648 517.527C835.858 521.318 833.442 525.022 830.398 528.635C833.799 529.175 836.796 529.853 839.392 530.665C841.986 531.479 843.283 532.88 843.283 534.865C843.283 536.493 843.014 537.981 842.479 539.337C841.939 540.692 840.868 541.82 839.254 542.724C838.005 543.445 836.351 544.666 834.292 546.38C832.236 548.096 830.265 550.083 828.387 552.339C826.509 554.6 824.896 557.083 823.556 559.794C822.213 562.502 821.542 565.21 821.542 567.921C821.542 569.004 821.901 569.999 822.615 570.901C823.332 571.805 824.227 572.258 825.298 572.258C828.342 572.258 832.412 571.127 837.512 568.868C842.612 566.612 847.579 564.13 852.406 561.419C858.135 558.166 864.128 554.643 870.392 550.852C870.568 550.852 870.658 550.94 870.658 551.123V552.206ZM834.159 511.836C834.159 508.402 832.814 506.689 830.132 506.689C828.877 506.689 827.404 507.093 825.705 507.905C824.003 508.721 822.394 509.804 820.871 511.156C819.35 512.512 818.053 514.002 816.98 515.628C815.906 517.256 815.371 518.879 815.371 520.507C815.371 522.854 816.577 524.569 818.993 525.655C821.409 526.738 824.136 527.549 827.178 528.094C829.503 525.2 831.25 522.313 832.412 519.422C833.575 516.532 834.159 514.002 834.159 511.836ZM951.985 552.206C951.985 552.746 951.85 553.334 951.578 553.967C951.312 554.6 950.641 555.186 949.567 555.731C942.589 560.424 935.968 564.58 929.708 568.193C924.339 571.263 918.791 574.107 913.065 576.727C907.341 579.345 902.686 580.657 899.109 580.657C896.246 580.657 894.365 579.888 893.471 578.353C892.578 576.818 892.131 575.237 892.131 573.612C892.131 572.707 892.219 571.896 892.4 571.172C892.578 570.451 892.759 569.728 892.935 569.004C893.114 568.283 893.294 567.65 893.471 567.11C893.471 567.288 892.533 568.012 890.653 569.273C888.777 570.539 886.447 571.848 883.677 573.205C880.902 574.559 877.951 575.78 874.818 576.861C871.689 577.948 868.871 578.488 866.362 578.488C860.996 578.488 858.311 576.23 858.311 571.713C858.311 565.936 860.55 560.155 865.022 554.374C869.497 548.593 874.819 543.31 880.992 538.523C887.166 533.735 893.651 529.853 900.451 526.873C907.251 523.891 912.887 522.401 917.361 522.401C920.043 522.401 922.193 523.032 923.801 524.298C925.413 525.564 926.217 527.461 926.217 529.989C926.217 531.614 925.636 533.237 924.472 534.865C923.309 536.493 921.966 537.981 920.445 539.337C918.925 540.692 917.494 541.82 916.155 542.724C914.81 543.626 913.872 544.076 913.336 544.076C912.261 544.076 911.723 543.445 911.723 542.182C911.723 541.639 911.901 541.187 912.261 540.825C912.442 540.646 912.527 540.463 912.527 540.285C915.747 537.212 917.361 534.594 917.361 532.426C917.361 529.717 915.928 528.363 913.065 528.363C910.202 528.363 906.446 529.582 901.791 532.021C897.141 534.461 892.578 537.483 888.104 541.096C883.629 544.709 879.783 548.684 876.563 553.02C873.343 557.354 871.732 561.329 871.732 564.941C871.732 567.831 873.521 569.273 877.099 569.273C880.5 569.273 883.946 568.283 887.432 566.293C890.922 564.308 894.144 562.14 897.098 559.794C900.049 557.444 902.6 555.276 904.745 553.291C906.891 551.302 908.236 550.312 908.772 550.312C910.561 550.49 911.456 551.392 911.456 553.02C911.456 553.741 911.006 554.736 910.112 556C909.217 557.261 908.279 558.618 907.294 560.062C906.313 561.507 905.371 563.042 904.476 564.67C903.581 566.293 903.136 567.921 903.136 569.547C903.136 571.353 904.297 572.258 906.625 572.258C909.667 572.258 913.739 571.127 918.837 568.868C923.935 566.612 928.899 564.13 933.733 561.419C939.459 558.166 945.452 554.643 951.717 550.852C951.895 550.852 951.985 550.94 951.985 551.123V552.206Z" fill="#2B2A29"/>
<path d="M157.439 335.681L155.383 333.843V321.705L157.439 319.789C168.673 319.632 175.948 319.073 179.192 318.033C182.434 317.076 185.361 315.001 187.894 311.966C190.424 308.932 195.564 298.95 203.319 282.183L227.68 228.842L290.719 84.7187C302.584 56.4538 314.367 28.2673 326.153 0H341.183L440.134 234.914L453.34 266.213C457.215 275.157 461.647 284.817 466.709 295.278C471.693 305.657 475.172 311.885 477.071 313.723C479.047 315.56 481.422 317.076 484.268 318.033C487.115 319.073 493.524 319.632 503.409 319.789L505.229 321.705V333.843L503.409 335.681C487.036 334.322 472.245 333.605 459.114 333.605C433.486 334.405 407.863 335.121 382.235 335.681L380.336 333.843V321.705L382.235 319.789C399.555 319.473 410.312 318.752 414.665 317.554C419.014 316.438 421.148 313.723 421.148 309.489C421.148 306.057 420.042 301.585 417.907 295.918L389.432 224.613H255.203L229.972 284.496C225.465 295.278 223.251 303.101 223.251 308.134C223.251 312.045 225.305 314.922 229.496 316.755C233.69 318.673 244.212 319.632 261.057 319.789L263.114 321.705V333.843L261.217 335.681C241.284 334.483 223.884 333.843 208.854 333.843C191.847 333.843 174.763 334.483 157.439 335.681ZM263.114 204.49H380.336L322.197 63.3986L263.114 204.49ZM655.407 176.144V223.654L655.643 269.247C655.8 286.255 656.276 297.512 657.066 303.101C657.857 308.613 658.963 312.207 660.389 313.801C661.891 315.479 664.739 316.917 668.852 318.033C673.046 319.232 683.325 320.111 699.702 320.748L701.518 322.105V333.843L699.702 335.681C660.467 334.483 638.321 333.843 633.181 333.843C628.278 333.843 606.127 334.483 566.897 335.681L565.077 333.843V322.105L566.897 320.748C581.451 320.111 591.021 319.311 595.767 318.433C600.513 317.476 603.676 316.198 605.258 314.679C606.92 313.082 608.186 309.967 609.214 305.338C610.24 300.628 610.794 290.006 610.954 273.479L611.192 223.654V115.38L610.716 69.708C610.559 51.9817 610.161 40.4839 609.452 35.3716C608.738 30.1832 607.631 26.7489 606.206 25.0734C604.704 23.3169 601.936 21.9579 597.742 20.8393C593.553 19.7231 583.27 18.9234 566.897 18.2856L565.077 16.6077V4.95048L566.897 3.27251C632.388 4.23403 670.673 4.71248 681.585 4.71248C718.368 4.71248 756.096 4.23403 794.695 3.27251L796.594 4.95048C794.064 12.695 792.479 21.5606 791.687 31.4614C790.899 41.3622 790.106 55.4161 789.159 73.4589L787.262 75.3772H776.421L774.765 73.4589C774.446 72.4212 773.734 66.3546 772.706 55.4946C771.913 46.8719 770.65 39.044 768.986 31.8611C752.933 26.3491 730.784 23.6335 702.47 23.6335C689.813 23.6335 674.942 24.595 658.016 26.4276C656.276 38.6441 655.407 68.2704 655.407 115.38V155.862C675.021 156.102 688.387 156.262 695.508 156.262C708.639 156.262 719.948 155.783 729.359 154.746C738.774 153.789 744.388 152.751 746.285 151.873C748.106 150.911 749.532 149.157 750.558 146.601C751.586 144.045 752.538 138.376 753.485 129.591L754.832 116.975L756.488 115.14H768.277L770.176 117.218L768.512 168.478C768.512 174.388 768.75 182.932 769.226 194.189C769.859 206.965 770.176 216.866 770.176 223.892L768.039 225.732H756.488L754.832 223.892L753.88 204.012C753.485 196.186 752.695 190.517 751.586 186.923C750.558 183.332 748.739 181.016 746.285 179.9C743.836 178.86 738.301 177.822 729.837 176.863C721.291 175.906 708.244 175.506 690.684 175.506C675.021 175.506 663.316 175.744 655.407 176.144Z" fill="#2B2A29"/>
<path fill-rule="evenodd" clip-rule="evenodd" d="M476.006 158.109C483.101 158.109 488.853 163.914 488.853 171.08C488.853 178.242 483.101 184.049 476.006 184.049C468.911 184.049 463.156 178.242 463.156 171.08C463.156 163.914 468.911 158.109 476.006 158.109Z" fill="#2B2A29" stroke="#2B2A29" stroke-width="4.76001" stroke-miterlimit="22.9256"/>
</svg>
