<svg width="35" height="35" viewBox="0 0 35 35" fill="none" xmlns="http://www.w3.org/2000/svg">
<rect width="35" height="35" rx="17.5" fill="white"/>
<path d="M2.09626 24.5576L2 24.4724V23.9099L2.09626 23.821C2.62176 23.8137 2.96217 23.7878 3.11399 23.7396C3.26568 23.6953 3.40263 23.5991 3.52106 23.4585C3.63949 23.3179 3.88 22.8552 4.24272 22.0781L5.38253 19.606L8.3319 12.9264C8.887 11.6164 9.43831 10.31 9.98976 9H10.6929L15.3224 19.8873L15.9404 21.338C16.1217 21.7525 16.3289 22.2002 16.5658 22.685C16.799 23.166 16.9618 23.4547 17.0506 23.5398C17.1431 23.625 17.2542 23.6953 17.3874 23.7396C17.5205 23.7878 17.8204 23.8137 18.2829 23.821L18.3681 23.9099V24.4724L18.2829 24.5576C17.5169 24.4946 16.8248 24.4613 16.2105 24.4613C15.0115 24.4984 13.8126 24.5316 12.6136 24.5576L12.5248 24.4724V23.9099L12.6136 23.821C13.4239 23.8063 13.9272 23.7729 14.1309 23.7175C14.3343 23.6657 14.4342 23.5398 14.4342 23.3437C14.4342 23.1846 14.3824 22.9773 14.2825 22.7146L12.9504 19.41H6.67023L5.48973 22.1853C5.27883 22.685 5.17528 23.0476 5.17528 23.2808C5.17528 23.4621 5.2714 23.5954 5.46756 23.6804C5.66373 23.7693 6.15597 23.8137 6.94414 23.821L7.0404 23.9099V24.4724L6.95158 24.5576C6.01902 24.502 5.20489 24.4724 4.50175 24.4724C3.70599 24.4724 2.90675 24.502 2.09626 24.5576ZM7.0404 18.4773H12.5248L9.80468 11.9383L7.0404 18.4773ZM25.3943 17.1636V19.3655L25.4054 21.4786C25.4127 22.2669 25.435 22.7886 25.4719 23.0476C25.509 23.303 25.5608 23.4695 25.6274 23.5435C25.6977 23.6212 25.831 23.6879 26.0234 23.7396C26.2196 23.7952 26.7006 23.8359 27.4667 23.8655L27.5518 23.9284V24.4724L27.4667 24.5576C25.6311 24.502 24.5949 24.4724 24.3544 24.4724C24.125 24.4724 23.0888 24.502 21.2533 24.5576L21.1681 24.4724V23.9284L21.2533 23.8655C21.9342 23.8359 22.382 23.7989 22.604 23.7582C22.8261 23.7138 22.974 23.6546 23.0481 23.5842C23.1258 23.5102 23.185 23.3658 23.2332 23.1513C23.2811 22.933 23.3071 22.4407 23.3145 21.6747L23.3256 19.3655V14.3474L23.3035 12.2307C23.296 11.4091 23.2775 10.8762 23.2442 10.6393C23.2108 10.3988 23.1591 10.2397 23.0924 10.162C23.0221 10.0806 22.8926 10.0176 22.6964 9.96581C22.5004 9.91403 22.0193 9.87699 21.2533 9.84738L21.1681 9.76964V9.22941L21.2533 9.15167C24.3174 9.19616 26.1086 9.21833 26.6192 9.21833C28.3401 9.21833 30.1053 9.19616 31.9112 9.15167L32 9.22941C31.8816 9.58835 31.8075 9.99921 31.7704 10.458C31.7335 10.9169 31.6965 11.5683 31.6521 12.4046L31.5633 12.4934H31.0562L30.9786 12.4046C30.9637 12.3564 30.9305 12.0752 30.8824 11.5719C30.8453 11.1723 30.7861 10.8095 30.7084 10.4766C29.9572 10.2212 28.921 10.0953 27.5962 10.0953C27.0041 10.0953 26.3084 10.1398 25.5164 10.2248C25.435 10.791 25.3943 12.164 25.3943 14.3474V16.2236C26.312 16.2347 26.9374 16.2421 27.2705 16.2421C27.8849 16.2421 28.414 16.22 28.8543 16.1718C29.2948 16.1275 29.5575 16.0794 29.6463 16.0387C29.7315 15.9942 29.7981 15.9128 29.8461 15.7944C29.8942 15.6759 29.9387 15.4131 29.9831 15.0061L30.0461 14.4214L30.1237 14.3363H30.6751L30.7639 14.4326L30.6862 16.8083C30.6862 17.0822 30.6973 17.4782 30.7196 17.9999C30.7492 18.592 30.7639 19.0509 30.7639 19.3766L30.664 19.4618H30.1237L30.0461 19.3766L30.0016 18.4551C29.9831 18.0925 29.9462 17.8297 29.8942 17.6631C29.8461 17.4967 29.7611 17.3894 29.6463 17.3376C29.5317 17.2895 29.2726 17.2413 28.8766 17.1969C28.4769 17.1525 27.8663 17.134 27.0448 17.134C26.312 17.134 25.7644 17.1451 25.3943 17.1636Z" fill="#2B2A29"/>
<path fill-rule="evenodd" clip-rule="evenodd" d="M19.0856 16.3359C19.4175 16.3359 19.6866 16.605 19.6866 16.9371C19.6866 17.2691 19.4175 17.5382 19.0856 17.5382C18.7536 17.5382 18.4844 17.2691 18.4844 16.9371C18.4844 16.605 18.7536 16.3359 19.0856 16.3359Z" fill="#2B2A29" stroke="#2B2A29" stroke-width="0.291698" stroke-miterlimit="22.9256"/>
</svg>
